<svg width="36" height="36" viewBox="0 0 36 36" fill="none" xmlns="http://www.w3.org/2000/svg">
<g clip-path="url(#clip0_65_2464)">
<path d="M33.4753 8.51076H25.7831V1.18294C25.7831 0.857233 25.5188 0.592896 25.1931 0.592896H10.8055C10.4798 0.592896 10.2155 0.857233 10.2155 1.18294V8.51076H2.52419C2.21737 8.51076 1.9587 8.75055 1.93604 9.05643L0.00165 34.7737C-0.0106228 34.937 0.046021 35.0994 0.156477 35.2174C0.266932 35.3382 0.424591 35.4072 0.589802 35.4072H35.4107C35.5759 35.4072 35.7335 35.3382 35.8431 35.2183C35.9544 35.0994 36.0111 34.937 35.9988 34.7727L34.0644 9.05643C34.0418 8.75055 33.7831 8.51076 33.4753 8.51076ZM25.1931 12.2502C25.4914 12.2502 25.734 12.4919 25.734 12.7883C25.734 13.0857 25.4914 13.3283 25.1931 13.3283C24.8947 13.3283 24.6521 13.0857 24.6521 12.7883C24.6521 12.4919 24.8947 12.2502 25.1931 12.2502ZM11.3956 1.77392H24.603V8.5117H11.3956V1.77392ZM10.8055 12.2502C11.1038 12.2502 11.3465 12.4919 11.3465 12.7883C11.3465 13.0857 11.1038 13.3283 10.8055 13.3283C10.5072 13.3283 10.2646 13.0857 10.2646 12.7883C10.2646 12.4919 10.5072 12.2502 10.8055 12.2502ZM1.22516 34.228L3.0708 9.69179H10.2155V11.1815C9.55747 11.4232 9.08449 12.0501 9.08449 12.7893C9.08449 13.738 9.85674 14.5093 10.8055 14.5093C11.7543 14.5093 12.5266 13.738 12.5266 12.7893C12.5266 12.0501 12.0536 11.4232 11.3956 11.1815V9.69179H24.603V11.1815C23.945 11.4232 23.472 12.0501 23.472 12.7893C23.472 13.738 24.2443 14.5093 25.1931 14.5093C26.1418 14.5093 26.9141 13.738 26.9141 12.7893C26.9141 12.0501 26.4411 11.4232 25.7831 11.1815V9.69179H32.9287L34.7744 34.228H1.22516Z" fill="white"/>
</g>
<defs>
<clipPath id="clip0_65_2464">
<rect width="36" height="36" fill="white"/>
</clipPath>
</defs>
</svg>
