<svg width="30" height="26" viewBox="0 0 30 26" fill="none" xmlns="http://www.w3.org/2000/svg">
<path d="M1.07143 26C0.4797 26 0 25.5149 0 24.9167C0 24.3185 0.4797 23.8333 1.07143 23.8333H28.9286C29.5202 23.8333 30 24.3185 30 24.9167C30 25.5149 29.5202 26 28.9286 26H1.07143ZM2.14286 17.875C2.14286 19.9691 3.82179 21.6667 5.89286 21.6667H9.10714C11.1782 21.6667 12.8571 19.9691 12.8571 17.875V3.79167C12.8571 1.69758 11.1782 0 9.10714 0H5.89286C3.82179 0 2.14286 1.69758 2.14286 3.79167V17.875ZM5.89286 19.5C5.00526 19.5 4.28571 18.7724 4.28571 17.875V3.79167C4.28571 2.89421 5.00526 2.16667 5.89286 2.16667H9.10714C9.99474 2.16667 10.7143 2.89421 10.7143 3.79167V17.875C10.7143 18.7724 9.99474 19.5 9.10714 19.5H5.89286ZM17.1429 17.875C17.1429 19.9691 18.8218 21.6667 20.8929 21.6667H24.1071C26.1782 21.6667 27.8571 19.9691 27.8571 17.875V8.125C27.8571 6.03092 26.1782 4.33333 24.1071 4.33333H20.8929C18.8218 4.33333 17.1429 6.03092 17.1429 8.125V17.875ZM20.8929 19.5C20.0053 19.5 19.2857 18.7724 19.2857 17.875V8.125C19.2857 7.22754 20.0053 6.5 20.8929 6.5H24.1071C24.9947 6.5 25.7143 7.22754 25.7143 8.125V17.875C25.7143 18.7724 24.9947 19.5 24.1071 19.5H20.8929Z" fill="white"/>
</svg>
