<svg width="19" height="20" viewBox="0 0 19 20" fill="none" xmlns="http://www.w3.org/2000/svg">
<path d="M3.29104 18.8458L11.037 11.0999C11.6381 10.4957 11.6381 9.51974 11.037 8.91552L3.29104 1.16958C2.71166 0.672314 1.85495 0.672314 1.27557 1.16958C0.62643 1.72575 0.550569 2.70481 1.10674 3.35396L7.75268 9.99997L1.10666 16.6615C0.505568 17.2657 0.505568 18.2416 1.10666 18.8458C1.71088 19.4469 2.6869 19.4469 3.29104 18.8458Z" fill="#DCDCDC"/>
<path d="M16.2812 1.24746L8.53529 8.9934C7.9342 9.59762 7.9342 10.5736 8.53529 11.1778L16.2812 18.9237C16.8606 19.421 17.7173 19.421 18.2967 18.9237C18.9458 18.3675 19.0217 17.3885 18.4655 16.7393L11.8196 10.0933L18.4656 3.43184C19.0667 2.82762 19.0667 1.85168 18.4656 1.24746C17.8614 0.646368 16.8854 0.646368 16.2812 1.24746Z" fill="#DCDCDC"/>
</svg>
