<svg width="87" height="15" viewBox="0 0 87 15" fill="none" xmlns="http://www.w3.org/2000/svg">
<path d="M86.3893 5.66765C86.2906 5.3507 86.0212 5.12631 85.7037 5.09633L81.3736 4.68612L79.6624 0.505394C79.536 0.19824 79.2486 0 78.9286 0C78.6086 0 78.321 0.19824 78.1955 0.505394L76.4842 4.68612L72.1535 5.09633C71.836 5.12691 71.5672 5.3513 71.4678 5.66765C71.3691 5.98459 71.4603 6.33223 71.7004 6.55197L74.9736 9.54695L74.0085 13.9825C73.9378 14.3087 74.0592 14.6459 74.3185 14.8415C74.4579 14.9472 74.6216 15 74.786 15C74.9272 15 75.0685 14.9608 75.1948 14.882L78.9286 12.5523L82.6617 14.882C82.9356 15.0528 83.2799 15.0371 83.5387 14.8415C83.798 14.6459 83.9193 14.3087 83.8487 13.9825L82.8836 9.54695L86.1568 6.55197C86.3968 6.33223 86.4881 5.98531 86.3893 5.66765Z" fill="url(#paint0_linear_45_735)"/>
<path d="M50.675 5.66765C50.5763 5.3507 50.3069 5.12631 49.9894 5.09633L45.6594 4.68612L43.9481 0.505394C43.8218 0.198241 43.5343 0 43.2143 0C42.8943 0 42.6067 0.198241 42.4812 0.505394L40.7699 4.68612L36.4392 5.09633C36.1217 5.12691 35.8529 5.3513 35.7536 5.66765C35.6548 5.98459 35.746 6.33223 35.9861 6.55197L39.2593 9.54695L38.2942 13.9825C38.2236 14.3087 38.3449 14.6459 38.6042 14.8415C38.7436 14.9472 38.9074 15 39.0717 15C39.2129 15 39.3543 14.9608 39.4805 14.882L43.2143 12.5523L46.9474 14.882C47.2213 15.0528 47.5656 15.0371 47.8244 14.8415C48.0837 14.6459 48.205 14.3087 48.1344 13.9825L47.1693 9.54695L50.4425 6.55197C50.6825 6.33223 50.7738 5.98531 50.675 5.66765Z" fill="url(#paint1_linear_45_735)"/>
<path d="M68.5322 5.66765C68.4334 5.3507 68.164 5.12631 67.8466 5.09633L63.5165 4.68612L61.8053 0.505394C61.6789 0.19824 61.3914 0 61.0714 0C60.7515 0 60.4639 0.19824 60.3383 0.505394L58.6271 4.68612L54.2963 5.09633C53.9789 5.12691 53.71 5.3513 53.6107 5.66765C53.5119 5.98459 53.6031 6.33223 53.8433 6.55197L57.1164 9.54695L56.1513 13.9825C56.0807 14.3087 56.202 14.6459 56.4614 14.8415C56.6007 14.9472 56.7645 15 56.9289 15C57.0701 15 57.2114 14.9608 57.3376 14.882L61.0714 12.5523L64.8046 14.882C65.0784 15.0528 65.4228 15.0371 65.6815 14.8415C65.9409 14.6459 66.0622 14.3087 65.9916 13.9825L65.0265 9.54695L68.2997 6.55197C68.5396 6.33223 68.631 5.98531 68.5322 5.66765Z" fill="url(#paint2_linear_45_735)"/>
<path d="M32.8179 5.66765C32.7191 5.3507 32.4497 5.12631 32.1323 5.09633L27.8022 4.68612L26.0909 0.505394C25.9646 0.198241 25.6771 0 25.3571 0C25.0372 0 24.7496 0.198241 24.624 0.505394L22.9128 4.68612L18.582 5.09633C18.2646 5.12691 17.9957 5.3513 17.8964 5.66765C17.7976 5.98459 17.8888 6.33223 18.1289 6.55197L21.4021 9.54695L20.437 13.9825C20.3664 14.3087 20.4877 14.6459 20.747 14.8415C20.8864 14.9472 21.0502 15 21.2145 15C21.3558 15 21.4971 14.9608 21.6233 14.882L25.3571 12.5523L29.0903 14.882C29.3641 15.0528 29.7085 15.0371 29.9672 14.8415C30.2266 14.6459 30.3479 14.3087 30.2773 13.9825L29.3122 9.54695L32.5853 6.55197C32.8253 6.33223 32.9166 5.98531 32.8179 5.66765Z" fill="url(#paint3_linear_45_735)"/>
<path d="M14.9608 5.66765C14.862 5.3507 14.5926 5.12631 14.2751 5.09633L9.94508 4.68612L8.23382 0.505394C8.10747 0.198241 7.81999 0 7.50001 0C7.18003 0 6.89243 0.198241 6.76689 0.505394L5.05563 4.68612L0.724889 5.09633C0.407425 5.12691 0.138599 5.3513 0.0392629 5.66765C-0.0595011 5.98459 0.0317097 6.33223 0.27181 6.55197L3.54499 9.54695L2.57989 13.9825C2.50928 14.3087 2.63059 14.6459 2.88992 14.8415C3.02931 14.9472 3.19307 15 3.35741 15C3.49864 15 3.63997 14.9608 3.7662 14.882L7.50001 12.5523L11.2331 14.882C11.507 15.0528 11.8513 15.0371 12.1101 14.8415C12.3694 14.6459 12.4907 14.3087 12.4201 13.9825L11.455 9.54695L14.7282 6.55197C14.9682 6.33223 15.0595 5.98531 14.9608 5.66765Z" fill="url(#paint4_linear_45_735)"/>
<defs>
<linearGradient id="paint0_linear_45_735" x1="-17.5" y1="15" x2="99" y2="15" gradientUnits="userSpaceOnUse">
<stop stop-color="#FED150"/>
<stop offset="1" stop-color="#D41A85"/>
</linearGradient>
<linearGradient id="paint1_linear_45_735" x1="-17.5" y1="15" x2="99" y2="15" gradientUnits="userSpaceOnUse">
<stop stop-color="#FED150"/>
<stop offset="1" stop-color="#D41A85"/>
</linearGradient>
<linearGradient id="paint2_linear_45_735" x1="-17.5" y1="15" x2="99" y2="15" gradientUnits="userSpaceOnUse">
<stop stop-color="#FED150"/>
<stop offset="1" stop-color="#D41A85"/>
</linearGradient>
<linearGradient id="paint3_linear_45_735" x1="-17.5" y1="15" x2="99" y2="15" gradientUnits="userSpaceOnUse">
<stop stop-color="#FED150"/>
<stop offset="1" stop-color="#D41A85"/>
</linearGradient>
<linearGradient id="paint4_linear_45_735" x1="-17.5" y1="15" x2="99" y2="15" gradientUnits="userSpaceOnUse">
<stop stop-color="#FED150"/>
<stop offset="1" stop-color="#D41A85"/>
</linearGradient>
</defs>
</svg>
