<svg width="25" height="25" viewBox="0 0 25 25" fill="none" xmlns="http://www.w3.org/2000/svg">
<g clip-path="url(#clip0_108_3121)">
<path d="M24.7153 23.3408L18.614 17.2397C20.1306 15.416 21.0443 13.0741 21.0443 10.5225C21.0443 4.72035 16.324 0 10.5222 0C4.72022 0 0 4.72035 0 10.5225C0 16.3242 4.72022 21.0441 10.5222 21.0441C13.0737 21.0441 15.4157 20.1306 17.2394 18.6141L23.3407 24.7153C23.5305 24.9051 23.7793 25 24.028 25C24.2767 25 24.5255 24.9051 24.7154 24.7153C25.095 24.3357 25.095 23.7203 24.7153 23.3408ZM1.94397 10.5225C1.94397 5.79226 5.79213 1.94397 10.5222 1.94397C15.2521 1.94397 19.1002 5.79226 19.1002 10.5225C19.1002 15.2523 15.2521 19.1002 10.5222 19.1002C5.79213 19.1002 1.94397 15.2523 1.94397 10.5225Z" fill="#2B2A29"/>
</g>
<defs>
<clipPath id="clip0_108_3121">
<rect width="25" height="25" fill="white"/>
</clipPath>
</defs>
</svg>
