<svg width="36" height="36" viewBox="0 0 36 36" fill="none" xmlns="http://www.w3.org/2000/svg">
<path d="M25.812 0C31.914 0 36 4.2822 36 10.6542V25.3602C36 31.716 31.914 36 25.812 36H10.206C4.104 36 0 31.716 0 25.3602V10.6542C0 4.2822 4.104 0 10.206 0H25.812ZM17.37 8.8542C16.632 8.8542 16.02 9.468 16.02 10.2042V19.296C16.02 19.764 16.272 20.214 16.686 20.448L23.742 24.66C23.958 24.804 24.21 24.858 24.444 24.858C24.894 24.858 25.344 24.624 25.596 24.192C25.992 23.5602 25.776 22.7322 25.128 22.338L18.72 18.522V10.2042C18.72 9.468 18.126 8.8542 17.37 8.8542Z" fill="black"/>
</svg>
