<svg width="66" height="67" viewBox="0 0 66 67" fill="none" xmlns="http://www.w3.org/2000/svg">
<path fill-rule="evenodd" clip-rule="evenodd" d="M33.022 0.407349C51.2353 0.407349 66.0002 15.1722 66.0002 33.3855C66.0002 51.5987 51.2353 66.3636 33.022 66.3636C14.8088 66.3636 0.0439453 51.5987 0.0439453 33.3855C0.0439453 15.1722 14.8088 0.407349 33.022 0.407349Z" fill="black"/>
<path d="M28 35.8688L28.8404 34.4588C29.3173 34.7873 29.7867 35.0356 30.2453 35.2038C30.7039 35.372 31.1991 35.4559 31.7311 35.4559C32.4833 35.4559 33.0556 35.3108 33.4444 35.0203C33.8332 34.7298 34.0314 34.2903 34.0314 33.7094C34.0314 33.2394 33.8553 32.8421 33.5104 32.5171C33.1619 32.1924 32.6191 31.9326 31.8816 31.7376C30.5058 31.3744 29.563 30.9119 29.0531 30.3579C28.5469 29.7999 28.2901 29.1157 28.2901 28.3019C28.2901 27.3617 28.631 26.5745 29.3136 25.9438C29.9922 25.3135 30.9423 25 32.1605 25C32.7473 25 33.305 25.0765 33.8368 25.233C34.3653 25.3898 34.9082 25.6612 35.4585 26.0395L34.6736 27.4269C34.1745 27.098 33.7231 26.8687 33.3271 26.7389C32.927 26.6089 32.5236 26.544 32.1163 26.544C31.4085 26.544 30.8652 26.6815 30.4947 26.9529C30.1207 27.2242 29.9336 27.6179 29.9336 28.1337C29.9336 28.6499 30.1278 29.0355 30.5095 29.2994C30.8947 29.5594 31.511 29.8075 32.3657 30.0369C33.4811 30.3502 34.3175 30.7899 34.8752 31.3516C35.4292 31.9171 35.708 32.6548 35.708 33.5643C35.708 34.6228 35.3485 35.4598 34.6259 36.0788C33.9067 36.6943 32.9198 37 31.6653 37C30.9938 37 30.3444 36.9043 29.7243 36.7095C29.1042 36.5147 28.532 36.2356 28 35.8688ZM54 36.7325H52.2391V30.1477C52.2391 28.8791 52.0485 27.9619 51.6742 27.396C51.2962 26.8267 50.6653 26.544 49.7773 26.544C49.0254 26.544 48.3832 26.903 47.8588 27.6179C47.3304 28.3364 47.0662 29.1922 47.0662 30.1936V36.7325H45.3051V29.926C45.3051 28.7989 45.0962 27.9542 44.6816 27.3887C44.2671 26.8267 43.6398 26.544 42.7997 26.544C42.0256 26.544 41.3908 26.8802 40.8882 27.5567C40.3855 28.233 40.1359 29.112 40.1359 30.1936V36.7325H38.3713V25.2675H40.1359V27.0829H40.18C40.5725 26.3872 41.0531 25.8675 41.6257 25.5196C42.1941 25.172 42.8509 25 43.5956 25C44.3476 25 45.0046 25.2178 45.5621 25.6535C46.1234 26.0892 46.505 26.6624 46.7141 27.3732C47.1213 26.5822 47.6313 25.986 48.2402 25.5925C48.8493 25.195 49.5573 25 50.368 25C51.5787 25 52.4851 25.386 53.094 26.1619C53.6994 26.9375 54 28.1071 54 29.6662V36.7325Z" fill="url(#paint0_linear_2_819)"/>
<path fill-rule="evenodd" clip-rule="evenodd" d="M21.2174 33.3047C21.2039 33.9194 20.9341 34.3473 21.0006 34.9791C21.2129 36.9937 23.4543 36.9091 25.11 36.9091C25.2769 36.5565 25.7529 35.1949 25.4437 34.8815C24.9754 34.6541 24.3523 34.8543 24.1112 34.4211C23.7863 33.8367 24.914 30.8985 25.1504 30.1918C25.7897 28.2832 27.0197 25.5078 27.7993 23.6376C27.979 23.2069 28.1628 22.7207 27.7523 22.2936C27.1984 21.7175 25.7481 21.418 25.1477 22.1916C24.9792 22.4088 23.0834 27.2534 21.5522 29.5887C20.6165 31.0156 18.6331 33.9462 16.8732 34.0977C16.1434 34.1605 15.8227 33.9608 15.6333 33.4401C14.8752 31.3554 18.2655 27.2737 19.582 25.6783C20.1519 24.9877 21.2976 24.0881 22.0264 23.5359C23.0155 22.7864 24.3811 21.9841 25.618 21.6542C26.6517 21.3782 28.1156 21.6589 27.4817 20.2077C26.9889 19.0793 26.2366 18.8212 25.1059 19.1077C23.178 19.5961 21.5947 20.3849 20.057 21.316C18.9187 22.0051 16.9842 23.5989 16.0167 24.6581C15.1825 25.5717 14.3741 26.6968 13.744 27.7629C12.5953 29.7058 11.405 32.6254 12.332 34.9822C13.3141 37.4785 16.1081 37.4502 18.3477 36.0302L20.3443 34.3351C20.6537 33.9404 20.9066 33.6666 21.2174 33.3047Z" fill="white"/>
<path fill-rule="evenodd" clip-rule="evenodd" d="M28 18.424V18.7841C28 18.8716 28.014 18.8892 28.014 18.9712C28.106 18.9712 28.2929 19 28.5023 19C28.7407 19 28.9487 18.9573 29.1454 18.9148C29.825 18.7682 30.5666 18.3702 31.1257 17.9631C31.1625 17.9363 31.1916 17.9138 31.2316 17.8852C31.7084 17.5477 32.2886 16.9493 32.6266 16.5021C32.6575 16.4612 32.6746 16.4352 32.7055 16.3964L33.2106 15.607C33.3947 15.2863 33.6059 14.7984 33.7178 14.4309C33.8957 13.8463 34 13.265 34 12.6482C34 12.5368 33.9791 12.0932 33.9581 12C33.6497 12 32.9524 12.1586 32.6797 12.2502C32.476 12.3187 32.3135 12.3738 32.1223 12.4527C31.878 12.5535 31.6984 12.6486 31.4744 12.7634C31.224 12.8914 30.8724 13.1362 30.6512 13.2965C30.4813 13.4197 30.3692 13.534 30.2326 13.6421L29.3954 14.5351C29.366 14.5736 29.3398 14.6065 29.3097 14.6482L29.1441 14.8806C28.9906 15.1052 28.835 15.356 28.7115 15.6007C28.6665 15.6898 28.6272 15.7756 28.5813 15.8695C28.5004 16.0354 28.3735 16.3725 28.3135 16.5581L28.1813 17.0269C28.0842 17.428 28 17.9261 28 18.424Z" fill="white"/>
<path d="M22.2514 46.8839H21.7801V44.0104C21.7801 43.4526 21.6835 43.0522 21.49 42.8121C21.2965 42.5721 21.0248 42.4514 20.6734 42.4514C20.3141 42.4514 20.0055 42.6056 19.7491 42.9138C19.4927 43.2238 19.3653 43.6083 19.3653 44.0709V46.8839H18.8971V43.9643C18.8971 43.4765 18.8064 43.1029 18.6269 42.8423C18.4471 42.5816 18.1802 42.4514 17.827 42.4514C17.4064 42.4514 17.0762 42.6087 16.8353 42.9217C16.5926 43.235 16.4728 43.6417 16.4728 44.1408V46.8839H16V42.116H16.4728V42.828H16.4913C16.6494 42.558 16.8475 42.3529 17.087 42.2113C17.325 42.0699 17.6028 42 17.9207 42C18.2446 42 18.5239 42.0905 18.7574 42.2749C18.9907 42.4577 19.1503 42.6945 19.2348 42.987C19.3867 42.6739 19.5972 42.4308 19.8643 42.2574C20.1313 42.0858 20.4153 42 20.7179 42C21.2228 42 21.6037 42.1622 21.8632 42.4864C22.1226 42.8105 22.2514 43.2937 22.2514 43.9373V46.8839ZM26.0759 47C25.405 47 24.8645 46.7742 24.4577 46.323C24.0493 45.8716 23.8451 45.2739 23.8451 44.5333C23.8451 43.7785 24.0631 43.1681 24.5007 42.7008C24.9365 42.2337 25.4755 42 26.1173 42C26.7759 42 27.3071 42.2337 27.7063 42.7008C28.1069 43.1681 28.3081 43.7689 28.3081 44.5048C28.3081 45.2372 28.1038 45.8366 27.6955 46.3022C27.2872 46.7677 26.7482 47 26.0759 47ZM26.0942 46.5486C26.6224 46.5486 27.0413 46.3611 27.3516 45.9874C27.6618 45.614 27.8167 45.1182 27.8167 44.4999C27.8167 43.8912 27.6632 43.3986 27.3531 43.022C27.0445 42.6452 26.6299 42.4563 26.108 42.4563C25.5861 42.4563 25.1592 42.6501 24.8276 43.041C24.4975 43.4304 24.3318 43.9293 24.3318 44.5366C24.3318 45.1484 24.493 45.6364 24.8154 46.0018C25.1377 46.3658 25.5629 46.5486 26.0942 46.5486ZM29.7526 46.0465L30.1747 45.8319C30.2838 46.067 30.4389 46.248 30.6415 46.3721C30.8426 46.496 31.0883 46.5582 31.3769 46.5582C31.6763 46.5582 31.9173 46.4706 32.0984 46.2975C32.2795 46.1227 32.3701 45.9032 32.3701 45.6364C32.3701 45.4027 32.3011 45.212 32.1614 45.0609C32.0216 44.9099 31.733 44.7622 31.2954 44.6161C30.8043 44.4587 30.4651 44.2759 30.2792 44.0693C30.0934 43.8626 29.9999 43.6083 29.9999 43.3079C29.9999 42.9012 30.1349 42.5816 30.4066 42.3481C30.6784 42.116 31.0176 42 31.4261 42C31.7068 42 31.971 42.0636 32.2167 42.1924C32.4639 42.321 32.6604 42.5085 32.8061 42.7534L32.4147 42.9727C32.3041 42.7962 32.1584 42.6627 31.9771 42.5721C31.796 42.4816 31.6056 42.4371 31.4076 42.4371C31.1174 42.4371 30.8857 42.5101 30.7153 42.6564C30.5448 42.8025 30.4588 43.0012 30.4588 43.2525C30.4588 43.4636 30.5247 43.6338 30.6584 43.7642C30.792 43.8944 31.0544 44.0232 31.4444 44.1502C31.9511 44.3157 32.3104 44.4999 32.5236 44.7049C32.7356 44.9099 32.8431 45.2056 32.8431 45.5934C32.8431 46.0161 32.7018 46.3562 32.4224 46.6136C32.1415 46.8712 31.7915 47 31.3724 47C30.9822 47 30.6491 46.9109 30.3727 46.7328C30.0981 46.5533 29.8908 46.3244 29.7526 46.0465ZM38.1563 46.1115C37.9706 46.3927 37.7389 46.6122 37.4641 46.7677C37.1877 46.922 36.856 47 36.4692 47C35.8245 47 35.2995 46.7695 34.8955 46.3085C34.4904 45.8476 34.2878 45.2566 34.2878 44.5333C34.2878 43.7722 34.501 43.1602 34.9294 42.6961C35.3562 42.2321 35.8873 42 36.5229 42C36.8653 42 37.1739 42.0748 37.4472 42.2225C37.722 42.3719 37.9553 42.5832 38.1472 42.8567L37.7834 43.1315C37.6006 42.8789 37.4011 42.7041 37.1862 42.6022C36.9728 42.5023 36.7456 42.4514 36.506 42.4514C36.0101 42.4514 35.5987 42.6389 35.2687 43.014C34.9386 43.3907 34.7744 43.8961 34.7744 44.5333C34.7744 45.1198 34.9325 45.6014 35.2503 45.978C35.568 46.3546 35.981 46.5437 36.4877 46.5437C36.7702 46.5437 37.0157 46.485 37.2245 46.3672C37.435 46.2498 37.6206 46.0685 37.7834 45.827L38.1563 46.1115ZM41.6875 47C41.0166 47 40.476 46.7742 40.0693 46.323C39.6609 45.8716 39.4569 45.2739 39.4569 44.5333C39.4569 43.7785 39.6748 43.1681 40.1122 42.7008C40.5483 42.2337 41.0872 42 41.7288 42C42.3875 42 42.9186 42.2337 43.3179 42.7008C43.7185 43.1681 43.9196 43.7689 43.9196 44.5048C43.9196 45.2372 43.7155 45.8366 43.307 46.3022C42.8988 46.7677 42.3599 47 41.6875 47ZM41.7058 46.5486C42.2339 46.5486 42.6531 46.3611 42.9631 45.9874C43.2734 45.614 43.4283 45.1182 43.4283 44.4999C43.4283 43.8912 43.2749 43.3986 42.9647 43.022C42.6562 42.6452 42.2416 42.4563 41.7196 42.4563C41.1977 42.4563 40.7709 42.6501 40.4392 43.041C40.1091 43.4304 39.9433 43.9293 39.9433 44.5366C39.9433 45.1484 40.1046 45.6364 40.427 46.0018C40.7495 46.3658 41.1747 46.5486 41.7058 46.5486ZM51 42.116L49.5923 46.8839H49.1378L48.1444 43.3493C48.12 43.2698 48.1031 43.2079 48.0938 43.1665C48.0848 43.1237 48.0771 43.0791 48.0678 43.033H48.0448C48.0324 43.0856 48.0218 43.1347 48.0111 43.1775C48.0001 43.2205 47.9832 43.2747 47.9588 43.3414L46.8534 46.8839H46.4036L45.0266 42.116H45.5177L46.574 45.8223C46.5894 45.8779 46.6016 45.9272 46.6123 45.9717C46.6233 46.0145 46.6323 46.0622 46.6416 46.1162H46.6768C46.6922 46.0622 46.706 46.0145 46.7152 45.9717C46.726 45.9272 46.7398 45.8779 46.7583 45.8223L47.9096 42.116H48.2659L49.2913 45.8223C49.3021 45.8684 49.3143 45.9128 49.3251 45.9525C49.3342 45.9923 49.3482 46.0479 49.362 46.1162H49.3942C49.4126 46.0479 49.4248 45.9939 49.4326 45.9572C49.4365 45.939 49.441 45.9182 49.4466 45.8956C49.452 45.8731 49.4586 45.8485 49.4663 45.8223L50.541 42.116H51Z" fill="white"/>
<defs>
<linearGradient id="paint0_linear_2_819" x1="28" y1="30.9999" x2="54" y2="30.9999" gradientUnits="userSpaceOnUse">
<stop stop-color="#FFE84B"/>
<stop offset="0.470588" stop-color="#FC2871"/>
<stop offset="1" stop-color="#C10E90"/>
</linearGradient>
</defs>
</svg>
