<svg width="197" height="72" viewBox="0 0 197 72" fill="none" xmlns="http://www.w3.org/2000/svg">
<path fill-rule="evenodd" clip-rule="evenodd" d="M78.321 58.9519V62.6161C78.321 71.4068 86.1185 74.5434 92.0533 69.584C94.3554 67.6605 95.8015 64.5999 97.0195 61.8668L100.306 52.4694C104.099 52.4694 106.979 53.9994 112.109 50.1804C113.888 48.8558 115.387 47.0448 116.566 45.0535C123.543 33.2658 122.296 17.5195 109.043 17.5195C102.751 17.5195 97.3828 21.1121 93.7472 24.7717C92.9559 25.5683 92.3993 26.309 91.6553 27.1896C85.4887 34.4861 78.321 49.7413 78.321 58.9519Z" fill="#2B2A29"/>
<path fill-rule="evenodd" clip-rule="evenodd" d="M37.1707 58.9519V62.6161C37.1707 71.4068 44.9681 74.5434 50.9029 69.584C53.205 67.6605 54.6506 64.5999 55.8691 61.8668L59.155 52.4694C62.9487 52.4694 65.8291 53.9994 70.9586 50.1804C78.0613 44.8926 83.1581 28.6077 76.701 21.3945C74.4883 18.9228 71.8298 17.758 69.0382 17.5195H66.7762C61.5782 17.9417 56.214 21.1304 52.5968 24.7717C50.8337 26.5464 48.0098 30.3108 46.698 32.4024C42.646 38.8649 37.1707 51.0653 37.1707 58.9519Z" fill="#2B2A29"/>
<path fill-rule="evenodd" clip-rule="evenodd" d="M142.865 53.315C142.832 54.8043 141.095 58.5854 144.091 60.8262C146.227 62.4224 149.101 62.3341 152.73 62.3341C153.058 61.6505 153.221 60.8635 153.487 59.9866C155.435 53.5466 148.277 60.7239 150.526 52.5204C151.172 50.1665 152.016 47.9341 152.833 45.5258C153.249 44.3001 153.711 43.3264 154.097 42.2804L159.546 29.1254C161.736 23.9394 154.434 23.461 152.826 25.5074C151.69 26.9522 144.967 47.2153 135.035 53.9406C132.953 55.3503 129.732 56.42 128.714 53.6542C126.854 48.6061 135.908 37.0223 139.832 33.0888L144.916 28.8711C155.267 21.1282 160.946 25.5274 158.741 20.5432C158.398 19.7675 157.366 18.47 156.743 18.0166C156.326 17.7133 155.767 17.5582 155.107 17.5195H154.396C149.89 17.7532 141.953 22.1038 139.925 23.3163C137.805 24.5829 136.414 25.7381 134.528 27.2205L132.087 29.2891C130.217 30.9352 130.003 31.3823 128.688 32.9371C126.235 35.8373 126.032 35.9285 123.925 39.4482C121.014 44.3099 117.997 51.6156 120.347 57.5128C123.225 64.7374 131.987 63.6634 138.29 58.0404C139.244 57.1886 139.807 56.9589 140.653 55.8937C141.437 54.9056 142.078 54.2207 142.865 53.315Z" fill="#2B2A29"/>
<path fill-rule="evenodd" clip-rule="evenodd" d="M23.3597 53.3152C23.3255 54.8534 22.6417 55.9244 22.8105 57.5054C23.3481 62.5463 29.0286 62.3343 33.2247 62.3343C33.6479 61.4522 34.8543 58.0449 34.0704 57.261C32.8839 56.6917 31.3046 57.1931 30.6938 56.1088C29.8703 54.6464 32.7277 47.2944 33.3274 45.5259C34.9471 40.7506 38.0644 33.8053 40.0406 29.1256C40.4956 28.0478 40.9613 26.8316 39.9214 25.7629C38.5175 24.3212 34.8416 23.5718 33.3204 25.5075C32.8933 26.0513 28.0889 38.1737 24.2083 44.0167C21.8368 47.5877 16.8103 54.9208 12.3501 55.2995C10.5006 55.4567 9.68798 54.957 9.20787 53.6544C7.28672 48.4379 15.8785 38.2242 19.2152 34.2322C20.6597 32.504 23.5627 30.2531 25.41 28.8712C27.9168 26.9959 31.3775 24.9886 34.5122 24.1626C37.132 23.4723 40.8418 24.1746 39.2352 20.5434C37.9862 17.7198 36.0798 17.074 33.2141 17.791C28.3285 19.0131 24.3158 20.9869 20.4188 23.3165C17.534 25.0409 12.6314 29.0289 10.1797 31.6791C8.06514 33.9655 6.01674 36.7804 4.41955 39.4483C1.50875 44.31 -1.50809 51.6157 0.841516 57.5129C3.33001 63.759 10.411 63.6882 16.0868 60.1348L21.1473 55.8938C21.9312 54.9057 22.5721 54.2209 23.3597 53.3152Z" fill="#2B2A29"/>
<path fill-rule="evenodd" clip-rule="evenodd" d="M168.514 30.4849C168.514 33.5426 168.329 35.9228 170.834 38.5929C176.944 45.1028 185.148 44.7026 182.759 52.6215C182.467 53.5899 181.972 54.2154 181.761 55.0061C176.873 54.5992 162.941 48.0719 157.865 52.8127C152.333 57.9792 156.428 67.6894 170.769 67.6894C174.134 67.6894 176.755 66.9521 179.191 65.9645C182.437 64.6485 183.531 63.0393 185.425 61.7705C191.626 63.215 190.981 63.0136 192.19 57.8244C192.174 57.4166 192.233 57.1416 192.134 57.0958C191.896 56.9858 191.953 57.2391 191.626 56.9788C190.209 56.9788 190.364 56.7255 189.089 56.6972C192.779 49.724 191.58 43.1339 184.861 38.3773C180.945 35.6055 176.406 34.7007 176.406 29.9209C176.406 26.605 180.055 24.2841 183.452 24.2841C186.495 24.2841 189.726 24.0308 190.774 27.9545C191.003 28.8128 190.929 29.6394 191.908 29.6394C194.568 29.6394 196.167 27.9312 196.417 25.7973V24.6039C196.05 21.2743 192.605 17.5195 185.143 17.5195C176.8 17.5195 168.514 22.9284 168.514 30.4849Z" fill="#2B2A29"/>
<path fill-rule="evenodd" clip-rule="evenodd" d="M52.837 37.8987C52.2502 37.8105 50.6716 41.9723 47.6616 49.2544C44.6516 56.5365 44.0769 63.7806 46.046 63.79C49.9959 63.809 51.4475 52.0766 52.1382 44.4038C52.4678 40.7431 52.9333 37.9131 52.837 37.8987Z" fill="#353535"/>
<path fill-rule="evenodd" clip-rule="evenodd" d="M66.5083 26.2573C67.9292 26.2667 69.256 27.1055 69.74 28.8539C70.971 33.2998 68.3282 48.4661 60.6898 47.1507C59.2943 46.9106 62.5349 34.1687 59.7859 32.8492C57.4655 31.7358 52.358 37.699 54.1574 35.355C58.535 29.652 63.7699 26.2391 66.5083 26.2573Z" fill="#353535"/>
<path fill-rule="evenodd" clip-rule="evenodd" d="M93.8871 37.8987C93.3002 37.8105 91.7217 41.9723 88.7117 49.2544C85.7017 56.5365 85.127 63.7806 87.096 63.79C91.0459 63.809 92.4975 52.0766 93.1882 44.4038C93.5178 40.7431 93.9834 37.9131 93.8871 37.8987Z" fill="#353535"/>
<path fill-rule="evenodd" clip-rule="evenodd" d="M107.558 26.2573C108.979 26.2667 110.306 27.1055 110.79 28.8539C112.021 33.2998 109.378 48.4661 101.74 47.1507C100.344 46.9106 103.585 34.1687 100.836 32.8492C98.5156 31.7358 93.4081 37.699 95.2074 35.355C99.5851 29.652 104.82 26.2391 107.558 26.2573Z" fill="#353535"/>
<path fill-rule="evenodd" clip-rule="evenodd" d="M169.701 58.2557C173.581 59.0246 177.359 59.986 177.464 60.2865C177.569 60.587 173.384 61.8303 169.423 61.8303C165.462 61.8303 162.703 59.2503 162.703 57.9557C162.703 56.6611 165.821 57.4869 169.701 58.2557Z" fill="#353535"/>
<path fill-rule="evenodd" clip-rule="evenodd" d="M42.2144 14.9833V15.8231C42.2144 16.0275 42.2481 16.0682 42.2481 16.2598C42.4697 16.2598 42.9194 16.327 43.4238 16.327C43.9976 16.327 44.4988 16.2271 44.9721 16.1282C46.6086 15.7863 48.3939 14.8579 49.7399 13.9085C49.8286 13.8457 49.8984 13.793 49.9951 13.7268C51.1431 12.9392 52.54 11.5438 53.3538 10.5009C53.4282 10.4055 53.4689 10.3444 53.5437 10.2541L54.7596 8.41286C55.2033 7.6649 55.7113 6.52696 55.9807 5.66969C56.4091 4.30632 56.6602 2.95047 56.6602 1.51167C56.6602 1.25185 56.6101 0.217394 56.5595 0C55.8168 0 54.1384 0.369624 53.4812 0.583597C52.9909 0.743351 52.5997 0.871626 52.1392 1.05567C51.5512 1.29102 51.1188 1.51253 50.5793 1.78021C49.9768 2.07902 49.1301 2.64977 48.5976 3.02367C48.1883 3.31102 47.9186 3.57786 47.5895 3.82981L45.574 5.91258C45.5033 6.00289 45.4402 6.07952 45.3677 6.17667L44.969 6.7187C44.5994 7.2426 44.2244 7.82757 43.9273 8.39816C43.8191 8.60598 43.7245 8.80609 43.614 9.02554C43.419 9.41227 43.1137 10.1984 42.9692 10.6316L42.6512 11.7246C42.4172 12.6605 42.2144 13.8221 42.2144 14.9833Z" fill="black"/>
<path fill-rule="evenodd" clip-rule="evenodd" d="M142.865 53.315C142.832 54.8043 141.095 58.5854 144.091 60.8262C146.227 62.4224 149.101 62.3341 152.73 62.3341C153.058 61.6505 153.221 60.8635 153.487 59.9866C155.435 53.5466 148.277 60.7239 150.526 52.5204C151.172 50.1665 152.016 47.9341 152.833 45.5258C153.249 44.3001 153.711 43.3264 154.097 42.2804L159.546 29.1254C161.736 23.9394 154.434 23.461 152.826 25.5074C151.69 26.9522 144.967 47.2153 135.035 53.9406C132.953 55.3503 129.732 56.42 128.714 53.6542C126.854 48.6061 135.908 37.0223 139.832 33.0888L144.916 28.8711C155.267 21.1282 160.946 25.5274 158.741 20.5432C158.398 19.7675 157.366 18.47 156.743 18.0166C156.326 17.7133 155.767 17.5582 155.107 17.5195H154.396C149.89 17.7532 141.953 22.1038 139.925 23.3163C137.805 24.5829 136.414 25.7381 134.528 27.2205L132.087 29.2891C130.217 30.9352 130.003 31.3823 128.688 32.9371C126.235 35.8373 126.032 35.9285 123.925 39.4482C121.014 44.3099 117.997 51.6156 120.347 57.5128C123.225 64.7374 131.987 63.6634 138.29 58.0404C139.244 57.1886 139.807 56.9589 140.653 55.8937C141.437 54.9056 142.078 54.2207 142.865 53.315Z" fill="#2B2A29"/>
<path fill-rule="evenodd" clip-rule="evenodd" d="M78.321 58.9519V62.6161C78.321 71.4068 86.1185 74.5434 92.0533 69.584C94.3554 67.6605 95.8015 64.5999 97.0195 61.8668L100.306 52.4694C104.099 52.4694 106.979 53.9994 112.109 50.1804C113.888 48.8558 115.387 47.0448 116.566 45.0535C123.543 33.2658 122.296 17.5195 109.043 17.5195C102.751 17.5195 97.3828 21.1121 93.7472 24.7717C92.9559 25.5683 92.3993 26.309 91.6553 27.1896C85.4887 34.4861 78.321 49.7413 78.321 58.9519Z" fill="white"/>
<path fill-rule="evenodd" clip-rule="evenodd" d="M37.1707 58.9519V62.6161C37.1707 71.4068 44.9681 74.5434 50.9029 69.584C53.205 67.6605 54.6506 64.5999 55.8691 61.8668L59.155 52.4694C62.9487 52.4694 65.8291 53.9994 70.9586 50.1804C78.0613 44.8926 83.1581 28.6077 76.701 21.3945C74.4883 18.9228 71.8298 17.758 69.0382 17.5195H66.7762C61.5782 17.9417 56.214 21.1304 52.5968 24.7717C50.8337 26.5464 48.0098 30.3108 46.698 32.4024C42.646 38.8649 37.1707 51.0653 37.1707 58.9519Z" fill="white"/>
<path fill-rule="evenodd" clip-rule="evenodd" d="M142.865 53.315C142.832 54.8043 141.095 58.5854 144.091 60.8262C146.227 62.4224 149.101 62.3341 152.73 62.3341C153.058 61.6505 153.221 60.8635 153.487 59.9866C155.435 53.5466 148.277 60.7239 150.526 52.5204C151.172 50.1665 152.016 47.9341 152.833 45.5258C153.249 44.3001 153.711 43.3264 154.097 42.2804L159.546 29.1254C161.736 23.9394 154.434 23.461 152.826 25.5074C151.69 26.9522 144.967 47.2153 135.035 53.9406C132.953 55.3503 129.732 56.42 128.714 53.6542C126.854 48.6061 135.908 37.0223 139.832 33.0888L144.916 28.8711C155.267 21.1282 160.946 25.5274 158.741 20.5432C158.398 19.7675 157.366 18.47 156.743 18.0166C156.326 17.7133 155.767 17.5582 155.107 17.5195H154.396C149.89 17.7532 141.953 22.1038 139.925 23.3163C137.805 24.5829 136.414 25.7381 134.528 27.2205L132.087 29.2891C130.217 30.9352 130.003 31.3823 128.688 32.9371C126.235 35.8373 126.032 35.9285 123.925 39.4482C121.014 44.3099 117.997 51.6156 120.347 57.5128C123.225 64.7374 131.987 63.6634 138.29 58.0404C139.244 57.1886 139.807 56.9589 140.653 55.8937C141.437 54.9056 142.078 54.2207 142.865 53.315Z" fill="#2B2A29"/>
<path fill-rule="evenodd" clip-rule="evenodd" d="M23.3597 53.3152C23.3255 54.8534 22.6417 55.9244 22.8105 57.5054C23.3481 62.5463 29.0286 62.3343 33.2247 62.3343C33.6479 61.4522 34.8543 58.0449 34.0704 57.261C32.8839 56.6917 31.3046 57.1931 30.6938 56.1088C29.8703 54.6464 32.7277 47.2944 33.3274 45.5259C34.9471 40.7506 38.0644 33.8053 40.0406 29.1256C40.4956 28.0478 40.9613 26.8316 39.9214 25.7629C38.5175 24.3212 34.8416 23.5718 33.3204 25.5075C32.8933 26.0513 28.0889 38.1737 24.2083 44.0167C21.8368 47.5877 16.8103 54.9208 12.3501 55.2995C10.5006 55.4567 9.68798 54.957 9.20787 53.6544C7.28672 48.4379 15.8785 38.2242 19.2152 34.2322C20.6597 32.504 23.5627 30.2531 25.41 28.8712C27.9168 26.9959 31.3775 24.9886 34.5122 24.1626C37.132 23.4723 40.8418 24.1746 39.2352 20.5434C37.9862 17.7198 36.0798 17.074 33.2141 17.791C28.3285 19.0131 24.3158 20.9869 20.4188 23.3165C17.534 25.0409 12.6314 29.0289 10.1797 31.6791C8.06514 33.9655 6.01674 36.7804 4.41955 39.4483C1.50875 44.31 -1.50809 51.6157 0.841516 57.5129C3.33001 63.759 10.411 63.6882 16.0868 60.1348L21.1473 55.8938C21.9312 54.9057 22.5721 54.2209 23.3597 53.3152Z" fill="white"/>
<path fill-rule="evenodd" clip-rule="evenodd" d="M168.514 30.4849C168.514 33.5426 168.329 35.9228 170.834 38.5929C176.944 45.1028 185.148 44.7026 182.759 52.6215C182.467 53.5899 181.972 54.2154 181.761 55.0061C176.873 54.5992 162.941 48.0719 157.865 52.8127C152.333 57.9792 156.428 67.6894 170.769 67.6894C174.134 67.6894 176.755 66.9521 179.191 65.9645C182.437 64.6485 183.531 63.0393 185.425 61.7705C191.626 63.215 190.981 63.0136 192.19 57.8244C192.174 57.4166 192.233 57.1416 192.134 57.0958C191.896 56.9858 191.953 57.2391 191.626 56.9788C190.209 56.9788 190.364 56.7255 189.089 56.6972C192.779 49.724 191.58 43.1339 184.861 38.3773C180.945 35.6055 176.406 34.7007 176.406 29.9209C176.406 26.605 180.055 24.2841 183.452 24.2841C186.495 24.2841 189.726 24.0308 190.774 27.9545C191.003 28.8128 190.929 29.6394 191.908 29.6394C194.568 29.6394 196.167 27.9312 196.417 25.7973V24.6039C196.05 21.2743 192.605 17.5195 185.143 17.5195C176.8 17.5195 168.514 22.9284 168.514 30.4849Z" fill="white"/>
<path fill-rule="evenodd" clip-rule="evenodd" d="M52.837 37.8987C52.2502 37.8105 50.6716 41.9723 47.6616 49.2544C44.6516 56.5365 44.0769 63.7806 46.046 63.79C49.9959 63.809 51.4475 52.0766 52.1382 44.4038C52.4678 40.7431 52.9333 37.9131 52.837 37.8987Z" fill="#353535"/>
<path fill-rule="evenodd" clip-rule="evenodd" d="M66.5083 26.2573C67.9292 26.2667 69.256 27.1055 69.74 28.8539C70.971 33.2998 68.3282 48.4661 60.6898 47.1507C59.2943 46.9106 62.5349 34.1687 59.7859 32.8492C57.4655 31.7358 52.358 37.699 54.1574 35.355C58.535 29.652 63.7699 26.2391 66.5083 26.2573Z" fill="#353535"/>
<path fill-rule="evenodd" clip-rule="evenodd" d="M93.8871 37.8987C93.3002 37.8105 91.7217 41.9723 88.7117 49.2544C85.7017 56.5365 85.127 63.7806 87.096 63.79C91.0459 63.809 92.4975 52.0766 93.1882 44.4038C93.5178 40.7431 93.9834 37.9131 93.8871 37.8987Z" fill="#353535"/>
<path fill-rule="evenodd" clip-rule="evenodd" d="M107.558 26.2573C108.979 26.2667 110.306 27.1055 110.79 28.8539C112.021 33.2998 109.378 48.4661 101.74 47.1507C100.344 46.9106 103.585 34.1687 100.836 32.8492C98.5156 31.7358 93.4081 37.699 95.2074 35.355C99.5851 29.652 104.82 26.2391 107.558 26.2573Z" fill="#353535"/>
<path fill-rule="evenodd" clip-rule="evenodd" d="M169.701 58.2557C173.581 59.0246 177.359 59.986 177.464 60.2865C177.569 60.587 173.384 61.8303 169.423 61.8303C165.462 61.8303 162.703 59.2503 162.703 57.9557C162.703 56.6611 165.821 57.4869 169.701 58.2557Z" fill="#353535"/>
<path fill-rule="evenodd" clip-rule="evenodd" d="M42.2144 14.9833V15.8231C42.2144 16.0275 42.2481 16.0682 42.2481 16.2598C42.4697 16.2598 42.9194 16.327 43.4238 16.327C43.9976 16.327 44.4988 16.2271 44.9721 16.1282C46.6086 15.7863 48.3939 14.8579 49.7399 13.9085C49.8286 13.8457 49.8984 13.793 49.9951 13.7268C51.1431 12.9392 52.54 11.5438 53.3538 10.5009C53.4282 10.4055 53.4689 10.3444 53.5437 10.2541L54.7596 8.41286C55.2033 7.6649 55.7113 6.52696 55.9807 5.66969C56.4091 4.30632 56.6602 2.95047 56.6602 1.51167C56.6602 1.25185 56.6101 0.217394 56.5595 0C55.8168 0 54.1384 0.369624 53.4812 0.583597C52.9909 0.743351 52.5997 0.871626 52.1392 1.05567C51.5512 1.29102 51.1188 1.51253 50.5793 1.78021C49.9768 2.07902 49.1301 2.64977 48.5976 3.02367C48.1883 3.31102 47.9186 3.57786 47.5895 3.82981L45.574 5.91258C45.5033 6.00289 45.4402 6.07952 45.3677 6.17667L44.969 6.7187C44.5994 7.2426 44.2244 7.82757 43.9273 8.39816C43.8191 8.60598 43.7245 8.80609 43.614 9.02554C43.419 9.41227 43.1137 10.1984 42.9692 10.6316L42.6512 11.7246C42.4172 12.6605 42.2144 13.8221 42.2144 14.9833Z" fill="white"/>
<path fill-rule="evenodd" clip-rule="evenodd" d="M142.865 53.315C142.832 54.8043 141.095 58.5854 144.091 60.8262C146.227 62.4224 149.101 62.3341 152.73 62.3341C153.058 61.6505 153.221 60.8635 153.487 59.9866C155.435 53.5466 148.277 60.7239 150.526 52.5204C151.172 50.1665 152.016 47.9341 152.833 45.5258C153.249 44.3001 153.711 43.3264 154.097 42.2804L159.546 29.1254C161.736 23.9394 154.434 23.461 152.826 25.5074C151.69 26.9522 144.967 47.2153 135.035 53.9406C132.953 55.3503 129.732 56.42 128.714 53.6542C126.854 48.6061 135.908 37.0223 139.832 33.0888L144.916 28.8711C155.267 21.1282 160.946 25.5274 158.741 20.5432C158.398 19.7675 157.366 18.47 156.743 18.0166C156.326 17.7133 155.767 17.5582 155.107 17.5195H154.396C149.89 17.7532 141.953 22.1038 139.925 23.3163C137.805 24.5829 136.414 25.7381 134.528 27.2205L132.087 29.2891C130.217 30.9352 130.003 31.3823 128.688 32.9371C126.235 35.8373 126.032 35.9285 123.925 39.4482C121.014 44.3099 117.997 51.6156 120.347 57.5128C123.225 64.7374 131.987 63.6634 138.29 58.0404C139.244 57.1886 139.807 56.9589 140.653 55.8937C141.437 54.9056 142.078 54.2207 142.865 53.315V53.315Z" fill="white"/>
</svg>
