<svg width="64" height="74" viewBox="0 0 64 74" fill="none" xmlns="http://www.w3.org/2000/svg">
<path d="M63.2462 54C61.5166 57.8288 60.6894 59.5424 58.4686 62.9264C55.3646 67.6528 50.9838 73.5504 45.5662 73.5904C40.747 73.6304 39.5038 70.4464 32.9646 70.4992C26.4254 70.5312 25.0622 73.6496 20.2382 73.6C14.8206 73.5504 10.6734 68.2368 7.56622 63.52C-1.12018 50.2864 -2.03698 34.7776 3.33102 26.5264C7.12942 20.6752 13.139 17.2384 18.7822 17.2384C24.5294 17.2384 28.1422 20.3968 32.8942 20.3968C37.5054 20.3968 40.3134 17.2304 46.9598 17.2304C51.987 17.2304 57.3022 19.9696 61.1006 24.696C48.675 31.504 50.6942 49.2512 63.2462 54ZM41.915 11.9488C44.3326 8.8448 46.1662 4.4656 45.5022 0C41.5566 0.2688 36.9438 2.7888 34.2478 6.0512C31.8062 9.0224 29.7822 13.4352 30.571 17.704C34.875 17.8432 39.3294 15.2768 41.915 11.9488Z" fill="white"/>
</svg>
