<svg width="33" height="33" viewBox="0 0 33 33" fill="none" xmlns="http://www.w3.org/2000/svg">
<path d="M16.4945 33C13.7396 32.9983 11.0138 32.3053 8.6119 30.9947L7.03505 30.1345L5.2976 30.5899L1.7325 31.5243L2.64495 28.1908L3.1438 26.3692L2.1989 24.7335C0.759003 22.2403 -0.00164732 19.3902 2.67868e-06 16.4923C0.00385268 7.39915 7.4052 0.0011 16.4984 0C20.9105 0.00165 25.0552 1.7193 28.1699 4.83615C31.2845 7.95355 33 12.0989 33 16.5061C32.9956 25.6008 25.5943 33 16.4945 33Z" fill="#79BA7E"/>
<path d="M25.6084 20.5568C25.1134 20.3098 22.6819 19.1125 22.2298 18.9486C21.776 18.783 21.4466 18.7016 21.1171 19.1955C20.7877 19.6905 19.84 20.8037 19.5524 21.1332C19.2642 21.4626 18.976 21.5039 18.481 21.2575C17.986 21.0105 16.3926 20.4875 14.5045 18.8034C13.0338 17.4933 12.0416 15.8735 11.7539 15.3785C11.4657 14.8835 11.7226 14.6168 11.9706 14.3698C12.1923 14.1482 12.4656 13.7918 12.7126 13.5036C12.9595 13.2154 13.042 13.0086 13.2076 12.6786C13.3731 12.3491 13.2906 12.0593 13.1663 11.8123C13.042 11.5654 12.0537 9.13109 11.6412 8.14219C11.2402 7.17859 10.8316 7.30894 10.5285 7.29409C10.2403 7.27924 9.91088 7.27759 9.58143 7.27759C9.25198 7.27759 8.71518 7.40189 8.26308 7.89689C7.81098 8.39189 6.53223 9.58759 6.53223 12.0208C6.53223 14.454 8.30433 16.8052 8.55128 17.1347C8.79823 17.4641 12.0372 22.4576 16.9993 24.5987C18.1785 25.1069 19.1008 25.4116 19.818 25.6404C21.0022 26.0166 22.0802 25.9633 22.9332 25.8357C23.8836 25.6932 25.8598 24.64 26.2701 23.4855C26.6826 22.3311 26.6826 21.3411 26.5583 21.1354C26.4329 20.928 26.1034 20.8037 25.6084 20.5568Z" fill="#353535"/>
</svg>
