<svg width="299" height="111" viewBox="0 0 299 111" fill="none" xmlns="http://www.w3.org/2000/svg">
<path fill-rule="evenodd" clip-rule="evenodd" d="M217.461 81.8423C217.41 84.1042 214.772 89.8468 219.323 93.2501C222.566 95.6743 226.932 95.5403 232.443 95.5403C232.941 94.502 233.19 93.3068 233.592 91.9749C236.551 82.194 225.679 93.0948 229.096 80.6354C230.077 77.0603 231.359 73.6697 232.6 70.0121C233.231 68.1505 233.933 66.6716 234.52 65.0831L242.795 45.1034C246.121 37.227 235.031 36.5004 232.589 39.6084C230.864 41.8027 220.653 72.5782 205.568 82.7923C202.405 84.9334 197.514 86.558 195.967 82.3574C193.143 74.6904 206.894 57.0971 212.854 51.123L220.575 44.7172C236.296 32.9573 244.922 39.6388 241.572 32.0689C241.051 30.8908 239.484 28.9202 238.538 28.2315C237.905 27.7709 237.056 27.5353 236.053 27.4766H234.973C228.129 27.8314 216.075 34.4391 212.994 36.2806C209.776 38.2043 207.662 39.9588 204.798 42.2103L201.09 45.352C198.251 47.8521 197.926 48.5312 195.929 50.8926C192.203 55.2973 191.895 55.4358 188.695 60.7815C184.273 68.1653 179.691 79.2611 183.26 88.2177C187.632 99.1904 200.939 97.5593 210.511 89.0191C211.961 87.7255 212.816 87.3766 214.1 85.7587C215.291 84.258 216.265 83.2178 217.461 81.8423Z" fill="url(#paint0_linear_210_1611)"/>
<path fill-rule="evenodd" clip-rule="evenodd" d="M35.9577 81.8456C35.9057 84.1818 34.8671 85.8085 35.1235 88.2096C35.94 95.8657 44.5674 95.5436 50.9405 95.5436C51.5832 94.2039 53.4154 89.0289 52.2249 87.8384C50.4228 86.9739 48.0243 87.7352 47.0966 86.0885C45.8458 83.8674 50.1856 72.7012 51.0964 70.0154C53.5565 62.7627 58.2909 52.2142 61.2924 45.1067C61.9834 43.4699 62.6907 41.6226 61.1113 39.9995C58.979 37.8099 53.3962 36.6718 51.0857 39.6117C50.4371 40.4375 43.1402 58.8489 37.2464 67.7231C33.6446 73.1467 26.0106 84.2841 19.2364 84.8593C16.4274 85.098 15.1932 84.3392 14.464 82.3607C11.5462 74.4381 24.5953 58.9255 29.663 52.8626C31.8568 50.2379 36.266 46.8192 39.0716 44.7205C42.8789 41.8723 48.1349 38.8235 52.8959 37.5691C56.8749 36.5206 62.5091 37.5873 60.0691 32.0722C58.1722 27.7838 55.2767 26.8029 50.9244 27.8919C43.5042 29.748 37.4098 32.7458 31.4911 36.284C27.1097 38.903 19.6637 44.96 15.9401 48.9849C12.7285 52.4576 9.61738 56.7328 7.19159 60.7848C2.77072 68.1686 -1.81122 79.2645 1.75733 88.221C5.53682 97.7075 16.2913 97.6 24.9117 92.2031L32.5975 85.762C33.788 84.2613 34.7614 83.2211 35.9577 81.8456Z" fill="url(#paint1_linear_210_1611)"/>
<path fill-rule="evenodd" clip-rule="evenodd" d="M256.416 47.1681C256.416 51.8122 256.134 55.4272 259.94 59.4826C269.219 69.3697 281.68 68.7618 278.051 80.7889C277.607 82.2597 276.856 83.2097 276.535 84.4107C269.111 83.7927 247.952 73.8791 240.242 81.0793C231.84 88.9261 238.06 103.674 259.84 103.674C264.951 103.674 268.932 102.554 272.631 101.054C277.561 99.0553 279.223 96.6114 282.1 94.6843C291.519 96.8781 290.538 96.5724 292.374 88.691C292.35 88.0717 292.44 87.654 292.289 87.5844C291.928 87.4173 292.015 87.8021 291.518 87.4067C289.366 87.4067 289.601 87.022 287.665 86.9791C293.269 76.3883 291.448 66.3794 281.243 59.155C275.296 54.9453 268.402 53.5711 268.402 46.3117C268.402 41.2754 273.945 37.7505 279.103 37.7505C283.726 37.7505 288.632 37.3657 290.224 43.325C290.572 44.6286 290.459 45.8841 291.946 45.8841C295.987 45.8841 298.416 43.2897 298.795 40.0487V38.2362C298.237 33.1792 293.005 27.4766 281.672 27.4766C269.001 27.4766 256.416 35.6915 256.416 47.1681Z" fill="url(#paint2_linear_210_1611)"/>
<path fill-rule="evenodd" clip-rule="evenodd" d="M80.7275 58.4279C79.8362 58.2938 77.4387 64.6147 72.8672 75.6747C68.2956 86.7347 67.4228 97.737 70.4133 97.7513C76.4123 97.7801 78.617 79.961 79.666 68.3077C80.1666 62.748 80.8737 58.4497 80.7275 58.4279Z" fill="#232F3E"/>
<path fill-rule="evenodd" clip-rule="evenodd" d="M143.074 58.4279C142.182 58.2938 139.785 64.6147 135.213 75.6747C130.642 86.7347 129.769 97.737 132.76 97.7513C138.759 97.7801 140.963 79.961 142.012 68.3077C142.513 62.748 143.22 58.4497 143.074 58.4279Z" fill="#232F3E"/>
<path fill-rule="evenodd" clip-rule="evenodd" d="M64.5935 23.6255V24.901C64.5935 25.2115 64.6447 25.2733 64.6447 25.5643C64.9814 25.5643 65.6643 25.6663 66.4304 25.6663C67.3019 25.6663 68.0631 25.5146 68.7819 25.3645C71.2674 24.8452 73.979 23.4351 76.0231 21.9931C76.158 21.8978 76.264 21.8178 76.4107 21.7172C78.1543 20.521 80.2759 18.4017 81.512 16.8178C81.625 16.6729 81.6868 16.5801 81.8003 16.443L83.6471 13.6465C84.3209 12.5105 85.0925 10.7822 85.5016 9.48019C86.1523 7.40951 86.5337 5.35028 86.5337 3.16504C86.5337 2.77044 86.4576 1.19932 86.3807 0.869141C85.2527 0.869141 82.7036 1.43052 81.7055 1.7555C80.9607 1.99813 80.3666 2.19295 79.6673 2.47247C78.7742 2.82992 78.1175 3.16634 77.2981 3.57289C76.3829 4.02672 75.097 4.89358 74.2884 5.46145C73.6667 5.89787 73.2571 6.30314 72.7572 6.6858L69.696 9.84908C69.5887 9.98624 69.4929 10.1026 69.3827 10.2502L68.7772 11.0734C68.2158 11.8691 67.6464 12.7575 67.1952 13.6242C67.0307 13.9398 66.8871 14.2437 66.7193 14.577C66.4231 15.1644 65.9594 16.3583 65.7399 17.0163L65.257 18.6763C64.9016 20.0978 64.5935 21.8619 64.5935 23.6255Z" fill="url(#paint3_linear_210_1611)"/>
<path fill-rule="evenodd" clip-rule="evenodd" d="M217.461 81.8423C217.41 84.1042 214.772 89.8468 219.323 93.2501C222.566 95.6743 226.932 95.5403 232.443 95.5403C232.941 94.502 233.19 93.3068 233.592 91.9749C236.551 82.194 225.679 93.0948 229.096 80.6354C230.077 77.0603 231.359 73.6697 232.6 70.0121C233.231 68.1505 233.933 66.6716 234.52 65.0831L242.795 45.1034C246.121 37.227 235.031 36.5004 232.589 39.6084C230.864 41.8027 220.653 72.5782 205.568 82.7923C202.405 84.9334 197.514 86.558 195.967 82.3574C193.143 74.6904 206.894 57.0971 212.854 51.123L220.575 44.7172C236.296 32.9573 244.922 39.6388 241.572 32.0689C241.051 30.8908 239.484 28.9202 238.538 28.2315C237.905 27.7709 237.056 27.5353 236.053 27.4766H234.973C228.129 27.8314 216.075 34.4391 212.994 36.2806C209.776 38.2043 207.662 39.9588 204.798 42.2103L201.09 45.352C198.251 47.8521 197.926 48.5312 195.929 50.8926C192.203 55.2973 191.895 55.4358 188.695 60.7815C184.273 68.1653 179.691 79.2611 183.26 88.2177C187.632 99.1904 200.939 97.5593 210.511 89.0191C211.961 87.7255 212.816 87.3766 214.1 85.7587C215.291 84.258 216.265 83.2178 217.461 81.8423Z" fill="url(#paint4_linear_210_1611)"/>
<path fill-rule="evenodd" clip-rule="evenodd" d="M119.432 90.4035V95.9686C119.432 109.32 131.275 114.084 140.289 106.551C143.785 103.63 145.982 98.9815 147.831 94.8306L152.822 80.558C158.584 80.558 162.958 82.8816 170.749 77.0814C173.452 75.0697 175.727 72.3191 177.518 69.2948C188.115 51.3918 186.222 27.4766 166.093 27.4766C156.536 27.4766 148.383 32.9329 142.861 38.4911C141.66 39.7009 140.814 40.826 139.684 42.1633C130.319 53.2451 119.432 76.4145 119.432 90.4035Z" fill="url(#paint5_linear_210_1611)"/>
<path fill-rule="evenodd" clip-rule="evenodd" d="M56.9336 90.4035V95.9686C56.9336 109.32 68.7763 114.084 77.79 106.551C81.2863 103.63 83.4819 98.9815 85.3326 94.8306L90.3232 80.558C96.085 80.558 100.46 82.8816 108.25 77.0814C119.038 69.0504 126.779 44.3171 116.972 33.3618C113.611 29.6078 109.573 27.8387 105.334 27.4766H101.898C94.0034 28.1177 85.8563 32.9607 80.3626 38.4911C77.6848 41.1865 73.3959 46.9037 71.4036 50.0805C65.2495 59.8956 56.9336 78.4254 56.9336 90.4035Z" fill="url(#paint6_linear_210_1611)"/>
<path fill-rule="evenodd" clip-rule="evenodd" d="M217.461 81.8423C217.41 84.1042 214.772 89.8468 219.323 93.2501C222.566 95.6743 226.932 95.5403 232.443 95.5403C232.941 94.502 233.19 93.3068 233.592 91.9749C236.551 82.194 225.679 93.0948 229.096 80.6354C230.077 77.0603 231.359 73.6697 232.6 70.0121C233.231 68.1505 233.933 66.6716 234.52 65.0831L242.795 45.1034C246.121 37.227 235.031 36.5004 232.589 39.6084C230.864 41.8027 220.653 72.5782 205.568 82.7923C202.405 84.9334 197.514 86.558 195.967 82.3574C193.143 74.6904 206.894 57.0971 212.854 51.123L220.575 44.7172C236.296 32.9573 244.922 39.6388 241.572 32.0689C241.051 30.8908 239.484 28.9202 238.538 28.2315C237.905 27.7709 237.056 27.5353 236.053 27.4766H234.973C228.129 27.8314 216.075 34.4391 212.994 36.2806C209.776 38.2043 207.662 39.9588 204.798 42.2103L201.09 45.352C198.251 47.8521 197.926 48.5312 195.929 50.8926C192.203 55.2973 191.895 55.4358 188.695 60.7815C184.273 68.1653 179.691 79.2611 183.26 88.2177C187.632 99.1904 200.939 97.5593 210.511 89.0191C211.961 87.7255 212.816 87.3766 214.1 85.7587C215.291 84.258 216.265 83.2178 217.461 81.8423Z" fill="url(#paint7_linear_210_1611)"/>
<path fill-rule="evenodd" clip-rule="evenodd" d="M35.9577 81.8456C35.9057 84.1818 34.8671 85.8085 35.1235 88.2096C35.94 95.8657 44.5674 95.5436 50.9405 95.5436C51.5832 94.2039 53.4154 89.0289 52.2249 87.8384C50.4228 86.9739 48.0243 87.7352 47.0966 86.0885C45.8458 83.8674 50.1856 72.7012 51.0964 70.0154C53.5565 62.7627 58.2909 52.2142 61.2924 45.1067C61.9834 43.4699 62.6907 41.6226 61.1113 39.9995C58.979 37.8099 53.3962 36.6718 51.0857 39.6117C50.4371 40.4375 43.1402 58.8489 37.2464 67.7231C33.6446 73.1467 26.0106 84.2841 19.2364 84.8593C16.4274 85.098 15.1932 84.3392 14.464 82.3607C11.5462 74.4381 24.5953 58.9255 29.663 52.8626C31.8568 50.2379 36.266 46.8192 39.0716 44.7205C42.8789 41.8723 48.1349 38.8235 52.8959 37.5691C56.8749 36.5206 62.5091 37.5873 60.0691 32.0722C58.1722 27.7838 55.2767 26.8029 50.9244 27.8919C43.5042 29.748 37.4098 32.7458 31.4911 36.284C27.1097 38.903 19.6637 44.96 15.9401 48.9849C12.7285 52.4576 9.61738 56.7328 7.19159 60.7848C2.77072 68.1686 -1.81122 79.2645 1.75733 88.221C5.53682 97.7075 16.2913 97.6 24.9117 92.2031L32.5975 85.762C33.788 84.2613 34.7614 83.2211 35.9577 81.8456Z" fill="url(#paint8_linear_210_1611)"/>
<path fill-rule="evenodd" clip-rule="evenodd" d="M256.416 47.1681C256.416 51.8122 256.134 55.4272 259.94 59.4826C269.219 69.3697 281.68 68.7618 278.051 80.7889C277.607 82.2597 276.856 83.2097 276.535 84.4107C269.111 83.7927 247.952 73.8791 240.242 81.0793C231.84 88.9261 238.06 103.674 259.84 103.674C264.951 103.674 268.932 102.554 272.631 101.054C277.561 99.0553 279.223 96.6114 282.1 94.6843C291.519 96.8781 290.538 96.5724 292.374 88.691C292.35 88.0717 292.44 87.654 292.289 87.5844C291.928 87.4173 292.015 87.8021 291.518 87.4067C289.366 87.4067 289.601 87.022 287.665 86.9791C293.269 76.3883 291.448 66.3794 281.243 59.155C275.296 54.9453 268.402 53.5711 268.402 46.3117C268.402 41.2754 273.945 37.7505 279.103 37.7505C283.726 37.7505 288.632 37.3657 290.224 43.325C290.572 44.6286 290.459 45.8841 291.946 45.8841C295.987 45.8841 298.416 43.2897 298.795 40.0487V38.2362C298.237 33.1792 293.005 27.4766 281.672 27.4766C269.001 27.4766 256.416 35.6915 256.416 47.1681Z" fill="url(#paint9_linear_210_1611)"/>
<path fill-rule="evenodd" clip-rule="evenodd" d="M80.7275 58.4279C79.8362 58.2938 77.4387 64.6147 72.8672 75.6747C68.2956 86.7347 67.4228 97.737 70.4133 97.7513C76.4123 97.7801 78.617 79.961 79.666 68.3077C80.1666 62.748 80.8737 58.4497 80.7275 58.4279Z" fill="black"/>
<path fill-rule="evenodd" clip-rule="evenodd" d="M101.491 40.7501C103.649 40.7644 105.664 42.0384 106.4 44.6938C108.269 51.4462 104.255 74.4805 92.6543 72.4828C90.5348 72.1181 95.4565 52.7658 91.2814 50.7619C87.7572 49.0708 80.0001 58.1276 82.7329 54.5676C89.3816 45.9059 97.3323 40.7226 101.491 40.7501Z" fill="black"/>
<path fill-rule="evenodd" clip-rule="evenodd" d="M143.074 58.4279C142.182 58.2938 139.785 64.6147 135.213 75.6747C130.642 86.7347 129.769 97.737 132.76 97.7513C138.759 97.7801 140.963 79.961 142.012 68.3077C142.513 62.748 143.22 58.4497 143.074 58.4279Z" fill="black"/>
<path fill-rule="evenodd" clip-rule="evenodd" d="M163.837 40.7501C165.995 40.7644 168.01 42.0384 168.746 44.6938C170.615 51.4462 166.601 74.4805 155 72.4828C152.881 72.1181 157.802 52.7658 153.627 50.7619C150.103 49.0708 142.346 58.1276 145.079 54.5676C151.728 45.9059 159.678 40.7226 163.837 40.7501Z" fill="black"/>
<path fill-rule="evenodd" clip-rule="evenodd" d="M258.219 89.3468C264.112 90.5145 269.85 91.9747 270.01 92.4311C270.169 92.8876 263.812 94.7759 257.796 94.7759C251.781 94.7759 247.591 90.8574 247.591 88.8912C247.591 86.9249 252.326 88.1791 258.219 89.3468Z" fill="black"/>
<path fill-rule="evenodd" clip-rule="evenodd" d="M64.5935 23.6255V24.901C64.5935 25.2115 64.6447 25.2733 64.6447 25.5643C64.9814 25.5643 65.6643 25.6663 66.4304 25.6663C67.3019 25.6663 68.0631 25.5146 68.7819 25.3645C71.2674 24.8452 73.979 23.4351 76.0231 21.9931C76.158 21.8978 76.264 21.8178 76.4107 21.7172C78.1543 20.521 80.2759 18.4017 81.512 16.8178C81.625 16.6729 81.6868 16.5801 81.8003 16.443L83.6471 13.6465C84.3209 12.5105 85.0925 10.7822 85.5016 9.48019C86.1523 7.40951 86.5337 5.35028 86.5337 3.16504C86.5337 2.77044 86.4576 1.19932 86.3807 0.869141C85.2527 0.869141 82.7036 1.43052 81.7055 1.7555C80.9607 1.99813 80.3666 2.19295 79.6673 2.47247C78.7742 2.82992 78.1175 3.16634 77.2981 3.57289C76.3829 4.02672 75.097 4.89358 74.2884 5.46145C73.6667 5.89787 73.2571 6.30314 72.7572 6.6858L69.696 9.84908C69.5887 9.98624 69.4929 10.1026 69.3827 10.2502L68.7772 11.0734C68.2158 11.8691 67.6464 12.7575 67.1952 13.6242C67.0307 13.9398 66.8871 14.2437 66.7193 14.577C66.4231 15.1644 65.9594 16.3583 65.7399 17.0163L65.257 18.6763C64.9016 20.0978 64.5935 21.8619 64.5935 23.6255Z" fill="url(#paint10_linear_210_1611)"/>
<path fill-rule="evenodd" clip-rule="evenodd" d="M217.461 81.8423C217.41 84.1042 214.772 89.8468 219.323 93.2501C222.566 95.6743 226.932 95.5403 232.443 95.5403C232.941 94.502 233.19 93.3068 233.592 91.9749C236.551 82.194 225.679 93.0948 229.096 80.6354C230.077 77.0603 231.359 73.6697 232.6 70.0121C233.231 68.1505 233.933 66.6716 234.52 65.0831L242.795 45.1034C246.121 37.227 235.031 36.5004 232.589 39.6084C230.864 41.8027 220.653 72.5782 205.568 82.7923C202.405 84.9334 197.514 86.558 195.967 82.3574C193.143 74.6904 206.894 57.0971 212.854 51.123L220.575 44.7172C236.296 32.9573 244.922 39.6388 241.572 32.0689C241.051 30.8908 239.484 28.9202 238.538 28.2315C237.905 27.7709 237.056 27.5353 236.053 27.4766H234.973C228.129 27.8314 216.075 34.4391 212.994 36.2806C209.776 38.2043 207.662 39.9588 204.798 42.2103L201.09 45.352C198.251 47.8521 197.926 48.5312 195.929 50.8926C192.203 55.2973 191.895 55.4358 188.695 60.7815C184.273 68.1653 179.691 79.2611 183.26 88.2177C187.632 99.1904 200.939 97.5593 210.511 89.0191C211.961 87.7255 212.816 87.3766 214.1 85.7587C215.291 84.258 216.265 83.2178 217.461 81.8423Z" fill="url(#paint11_linear_210_1611)"/>
<defs>
<linearGradient id="paint0_linear_210_1611" x1="212.697" y1="27.4766" x2="212.697" y2="95.939" gradientUnits="userSpaceOnUse">
<stop stop-color="#FED150"/>
<stop offset="0.494792" stop-color="#FC416C"/>
<stop offset="1" stop-color="#D01887"/>
</linearGradient>
<linearGradient id="paint1_linear_210_1611" x1="31.2718" y1="27.4824" x2="31.2718" y2="95.8891" gradientUnits="userSpaceOnUse">
<stop stop-color="#FED150"/>
<stop offset="0.494792" stop-color="#FC416C"/>
<stop offset="1" stop-color="#D01887"/>
</linearGradient>
<linearGradient id="paint2_linear_210_1611" x1="267.719" y1="27.4766" x2="267.719" y2="103.674" gradientUnits="userSpaceOnUse">
<stop stop-color="#FED150"/>
<stop offset="0.494792" stop-color="#FC416C"/>
<stop offset="1" stop-color="#D01887"/>
</linearGradient>
<linearGradient id="paint3_linear_210_1611" x1="75.5636" y1="0.869141" x2="75.5636" y2="25.6663" gradientUnits="userSpaceOnUse">
<stop stop-color="#FED150"/>
<stop offset="0.494792" stop-color="#FC416C"/>
<stop offset="1" stop-color="#D01887"/>
</linearGradient>
<linearGradient id="paint4_linear_210_1611" x1="212.697" y1="27.4766" x2="212.697" y2="95.939" gradientUnits="userSpaceOnUse">
<stop stop-color="#FED150"/>
<stop offset="0.494792" stop-color="#FC416C"/>
<stop offset="1" stop-color="#D01887"/>
</linearGradient>
<linearGradient id="paint5_linear_210_1611" x1="151.654" y1="27.4766" x2="151.654" y2="110.127" gradientUnits="userSpaceOnUse">
<stop stop-color="#FED150"/>
<stop offset="0.494792" stop-color="#FC416C"/>
<stop offset="1" stop-color="#D01887"/>
</linearGradient>
<linearGradient id="paint6_linear_210_1611" x1="89.2023" y1="27.4766" x2="89.2023" y2="110.127" gradientUnits="userSpaceOnUse">
<stop stop-color="#FED150"/>
<stop offset="0.494792" stop-color="#FC416C"/>
<stop offset="1" stop-color="#D01887"/>
</linearGradient>
<linearGradient id="paint7_linear_210_1611" x1="212.697" y1="27.4766" x2="212.697" y2="95.939" gradientUnits="userSpaceOnUse">
<stop stop-color="#FED150"/>
<stop offset="0.494792" stop-color="#FC416C"/>
<stop offset="1" stop-color="#D01887"/>
</linearGradient>
<linearGradient id="paint8_linear_210_1611" x1="31.2718" y1="27.4824" x2="31.2718" y2="95.8891" gradientUnits="userSpaceOnUse">
<stop stop-color="#FED150"/>
<stop offset="0.494792" stop-color="#FC416C"/>
<stop offset="1" stop-color="#D01887"/>
</linearGradient>
<linearGradient id="paint9_linear_210_1611" x1="267.719" y1="27.4766" x2="267.719" y2="103.674" gradientUnits="userSpaceOnUse">
<stop stop-color="#FED150"/>
<stop offset="0.494792" stop-color="#FC416C"/>
<stop offset="1" stop-color="#D01887"/>
</linearGradient>
<linearGradient id="paint10_linear_210_1611" x1="75.5636" y1="0.869141" x2="75.5636" y2="25.6663" gradientUnits="userSpaceOnUse">
<stop stop-color="#FED150"/>
<stop offset="0.494792" stop-color="#FC416C"/>
<stop offset="1" stop-color="#D01887"/>
</linearGradient>
<linearGradient id="paint11_linear_210_1611" x1="212.697" y1="27.4766" x2="212.697" y2="95.939" gradientUnits="userSpaceOnUse">
<stop stop-color="#FED150"/>
<stop offset="0.494792" stop-color="#FC416C"/>
<stop offset="1" stop-color="#D01887"/>
</linearGradient>
</defs>
</svg>
