<svg width="557" height="149" viewBox="0 0 557 149" fill="none" xmlns="http://www.w3.org/2000/svg">
<path fill-rule="evenodd" clip-rule="evenodd" d="M144.933 109.09V115.871C144.933 132.138 159.362 137.943 170.345 128.765C174.605 125.206 177.281 119.542 179.535 114.484L185.615 97.0946C192.636 97.0946 197.965 99.9258 207.458 92.8587C210.75 90.4076 213.523 87.0564 215.704 83.3716C228.616 61.5584 226.31 32.4199 201.784 32.4199C190.141 32.4199 180.207 39.068 173.479 45.8401C172.015 47.3141 170.985 48.6849 169.608 50.3143C158.197 63.8164 144.933 92.0462 144.933 109.09Z" fill="#F5F7FA"/>
<path fill-rule="evenodd" clip-rule="evenodd" d="M68.7842 109.09V115.871C68.7842 132.138 83.2134 137.943 94.1957 128.765C98.4557 125.206 101.131 119.542 103.386 114.484L109.466 97.0946C116.486 97.0946 121.817 99.9258 131.309 92.8587C144.452 83.0737 153.884 52.9385 141.935 39.5905C137.84 35.0166 132.921 32.8611 127.755 32.4199H123.569C113.95 33.2011 104.024 39.1018 97.3302 45.8401C94.0676 49.1242 88.8419 56.0901 86.4146 59.9607C78.9164 71.9195 68.7842 94.4964 68.7842 109.09Z" fill="#F5F7FA"/>
<path fill-rule="evenodd" clip-rule="evenodd" d="M264.372 98.6594C264.311 101.415 261.096 108.412 266.641 112.559C270.592 115.513 275.912 115.349 282.627 115.349C283.234 114.084 283.536 112.628 284.027 111.005C287.632 99.088 274.386 112.37 278.549 97.1889C279.743 92.8331 281.306 88.702 282.817 84.2455C283.586 81.9773 284.442 80.1754 285.157 78.2399L295.24 53.8966C299.292 44.2999 285.78 43.4147 282.804 47.2014C280.702 49.875 268.261 87.372 249.882 99.8169C246.029 102.426 240.069 104.405 238.184 99.2871C234.744 89.9455 251.497 68.5097 258.76 61.2309L268.166 53.426C287.322 39.0977 297.831 47.2384 293.75 38.0152C293.115 36.5799 291.206 34.1788 290.053 33.3397C289.281 32.7785 288.247 32.4915 287.025 32.4199H285.709C277.371 32.8523 262.684 40.9031 258.93 43.1469C255.009 45.4906 252.433 47.6284 248.943 50.3716L244.426 54.1995C240.966 57.2456 240.571 58.073 238.137 60.9501C233.597 66.3169 233.223 66.4856 229.324 72.9988C223.936 81.9954 218.354 95.5146 222.702 106.427C228.028 119.797 244.242 117.809 255.905 107.404C257.672 105.828 258.713 105.402 260.278 103.431C261.729 101.603 262.915 100.335 264.372 98.6594Z" fill="#F5F7FA"/>
<path fill-rule="evenodd" clip-rule="evenodd" d="M43.2271 98.6602C43.1638 101.507 41.8984 103.489 42.2108 106.414C43.2056 115.742 53.7173 115.35 61.4823 115.35C62.2654 113.718 64.4977 107.412 63.0472 105.962C60.8515 104.909 57.9291 105.836 56.7989 103.83C55.2749 101.124 60.5625 87.5187 61.6722 84.2463C64.6696 75.4095 70.4381 62.5572 74.0951 53.8974C74.937 51.903 75.7988 49.6523 73.8744 47.6748C71.2765 45.0069 64.4743 43.6202 61.6593 47.2022C60.8689 48.2084 51.9784 70.6409 44.7973 81.4533C40.4089 88.0615 31.1075 101.631 22.8538 102.332C19.4313 102.623 17.9276 101.698 17.0391 99.2879C13.4841 89.6349 29.3832 70.7343 35.5577 63.3472C38.2306 60.1492 43.6028 55.9839 47.0212 53.4268C51.66 49.9565 58.064 46.2419 63.8647 44.7135C68.7127 43.436 75.5776 44.7356 72.6046 38.016C70.2934 32.7911 66.7656 31.5959 61.4627 32.9227C52.4218 35.1842 44.9964 38.8368 37.785 43.1477C32.4467 46.3388 23.3745 53.7186 18.8376 58.6226C14.9245 62.8538 11.134 68.0626 8.17836 72.9996C2.79194 81.9962 -2.79072 95.5154 1.55722 106.428C6.16217 117.987 19.2655 117.855 29.7687 111.28L39.133 103.432C40.5836 101.604 41.7696 100.336 43.2271 98.6602Z" fill="#F5F7FA"/>
<path fill-rule="evenodd" clip-rule="evenodd" d="M311.835 56.4123C311.835 62.0706 311.492 66.4752 316.128 71.4162C327.434 83.4627 342.616 82.7221 338.195 97.376C337.654 99.1681 336.739 100.326 336.348 101.789C327.302 101.036 301.522 88.9571 292.129 97.7299C281.891 107.29 289.469 125.259 316.007 125.259C322.234 125.259 327.085 123.895 331.592 122.067C337.599 119.632 339.623 116.654 343.129 114.306C354.604 116.979 353.41 116.607 355.647 107.004C355.617 106.249 355.727 105.74 355.543 105.656C355.102 105.452 355.208 105.921 354.604 105.439C351.982 105.439 352.268 104.97 349.909 104.918C356.737 92.0143 354.518 79.8193 342.085 71.0171C334.838 65.888 326.439 64.2137 326.439 55.3687C326.439 49.2325 333.192 44.9377 339.477 44.9377C345.109 44.9377 351.087 44.4689 353.027 51.7297C353.451 53.318 353.314 54.8477 355.125 54.8477C360.049 54.8477 363.007 51.6867 363.47 47.7379V45.5296C362.79 39.368 356.415 32.4199 342.607 32.4199C327.169 32.4199 311.835 42.429 311.835 56.4123Z" fill="#F5F7FA"/>
<path fill-rule="evenodd" clip-rule="evenodd" d="M97.775 70.1315C96.6891 69.9681 93.768 77.6695 88.198 91.1451C82.628 104.621 81.5645 118.026 85.2082 118.043C92.5174 118.078 95.2037 96.3675 96.4817 82.1691C97.0917 75.3951 97.9532 70.158 97.775 70.1315Z" fill="#F5F7FA"/>
<path fill-rule="evenodd" clip-rule="evenodd" d="M123.074 48.588C125.703 48.6054 128.158 50.1576 129.054 53.393C131.332 61.6201 126.441 89.6853 112.306 87.2514C109.724 86.807 115.721 63.228 110.634 60.7864C106.34 58.7259 96.8885 69.7609 100.218 65.4234C108.319 54.8699 118.006 48.5545 123.074 48.588Z" fill="#F5F7FA"/>
<path fill-rule="evenodd" clip-rule="evenodd" d="M173.738 70.1315C172.652 69.9681 169.731 77.6695 164.161 91.1451C158.591 104.621 157.527 118.026 161.171 118.043C168.48 118.078 171.167 96.3675 172.445 82.1691C173.055 75.3951 173.916 70.158 173.738 70.1315Z" fill="#F5F7FA"/>
<path fill-rule="evenodd" clip-rule="evenodd" d="M199.037 48.588C201.666 48.6054 204.121 50.1576 205.017 53.393C207.295 61.6201 202.404 89.6853 188.27 87.2514C185.687 86.807 191.684 63.228 186.597 60.7864C182.303 58.7259 172.852 69.7609 176.181 65.4234C184.282 54.8699 193.969 48.5545 199.037 48.588Z" fill="#F5F7FA"/>
<path fill-rule="evenodd" clip-rule="evenodd" d="M314.031 107.803C321.211 109.225 328.203 111.004 328.397 111.561C328.591 112.117 320.846 114.417 313.517 114.417C306.187 114.417 301.082 109.643 301.082 107.248C301.082 104.852 306.852 106.38 314.031 107.803Z" fill="#F5F7FA"/>
<path fill-rule="evenodd" clip-rule="evenodd" d="M78.1177 27.7265V29.2806C78.1177 29.6588 78.18 29.7342 78.18 30.0887C78.5902 30.0887 79.4223 30.213 80.3557 30.213C81.4176 30.213 82.345 30.0282 83.2208 29.8453C86.2492 29.2125 89.553 27.4945 92.0436 25.7376C92.2079 25.6214 92.337 25.5239 92.5158 25.4014C94.6403 23.9439 97.2253 21.3618 98.7312 19.432C98.8689 19.2554 98.9442 19.1424 99.0826 18.9753L101.333 15.568C102.154 14.1839 103.094 12.0781 103.592 10.4918C104.385 7.96883 104.85 5.45985 104.85 2.79734C104.85 2.31655 104.757 0.402288 104.663 0C103.289 0 100.183 0.683988 98.967 1.07995C98.0596 1.37557 97.3357 1.61294 96.4837 1.95351C95.3955 2.38903 94.5953 2.79893 93.5971 3.29427C92.482 3.84722 90.9153 4.9034 89.9299 5.59529C89.1725 6.12704 88.6734 6.62082 88.0644 7.08705L84.3346 10.9412C84.2039 11.1083 84.0871 11.2501 83.9529 11.4299L83.2151 12.4329C82.5311 13.4024 81.8373 14.4849 81.2876 15.5408C81.0872 15.9253 80.9122 16.2957 80.7077 16.7017C80.3469 17.4174 79.7819 18.8721 79.5144 19.6738L78.9261 21.6963C78.4931 23.4283 78.1177 25.5777 78.1177 27.7265Z" fill="#F5F7FA"/>
<path fill-rule="evenodd" clip-rule="evenodd" d="M264.372 98.6594C264.311 101.415 261.096 108.412 266.641 112.559C270.592 115.513 275.912 115.349 282.627 115.349C283.234 114.084 283.536 112.628 284.027 111.005C287.632 99.088 274.386 112.37 278.549 97.1889C279.743 92.8331 281.306 88.702 282.817 84.2455C283.586 81.9773 284.442 80.1754 285.157 78.2399L295.24 53.8966C299.292 44.2999 285.78 43.4147 282.804 47.2014C280.702 49.875 268.261 87.372 249.882 99.8169C246.029 102.426 240.069 104.405 238.184 99.2871C234.744 89.9455 251.497 68.5097 258.76 61.2309L268.166 53.426C287.322 39.0977 297.831 47.2384 293.75 38.0152C293.115 36.5799 291.206 34.1788 290.053 33.3397C289.281 32.7785 288.247 32.4915 287.025 32.4199H285.709C277.371 32.8523 262.684 40.9031 258.93 43.1469C255.009 45.4906 252.433 47.6284 248.943 50.3716L244.426 54.1995C240.966 57.2456 240.571 58.073 238.137 60.9501C233.597 66.3169 233.223 66.4856 229.324 72.9988C223.936 81.9954 218.354 95.5146 222.702 106.427C228.028 119.797 244.242 117.809 255.905 107.404C257.672 105.828 258.713 105.402 260.278 103.431C261.729 101.603 262.915 100.335 264.372 98.6594Z" fill="#F5F7FA"/>
<path fill-rule="evenodd" clip-rule="evenodd" d="M144.933 109.09V115.871C144.933 132.138 159.362 137.943 170.345 128.765C174.605 125.206 177.281 119.542 179.535 114.484L185.615 97.0946C192.636 97.0946 197.965 99.9258 207.458 92.8587C210.75 90.4076 213.523 87.0564 215.704 83.3716C228.616 61.5584 226.31 32.4199 201.784 32.4199C190.141 32.4199 180.207 39.068 173.479 45.8401C172.015 47.3141 170.985 48.6849 169.608 50.3143C158.197 63.8164 144.933 92.0462 144.933 109.09Z" fill="#232F3E"/>
<path fill-rule="evenodd" clip-rule="evenodd" d="M68.7842 109.09V115.871C68.7842 132.138 83.2134 137.943 94.1957 128.765C98.4557 125.206 101.131 119.542 103.386 114.484L109.466 97.0946C116.486 97.0946 121.817 99.9258 131.309 92.8587C144.452 83.0737 153.884 52.9385 141.935 39.5905C137.84 35.0166 132.921 32.8611 127.755 32.4199H123.569C113.95 33.2011 104.024 39.1018 97.3302 45.8401C94.0676 49.1242 88.8419 56.0901 86.4146 59.9607C78.9164 71.9195 68.7842 94.4964 68.7842 109.09Z" fill="#232F3E"/>
<path fill-rule="evenodd" clip-rule="evenodd" d="M264.372 98.6594C264.311 101.415 261.096 108.412 266.641 112.559C270.592 115.513 275.912 115.349 282.627 115.349C283.234 114.084 283.536 112.628 284.027 111.005C287.632 99.088 274.386 112.37 278.549 97.1889C279.743 92.8331 281.306 88.702 282.817 84.2455C283.586 81.9773 284.442 80.1754 285.157 78.2399L295.24 53.8966C299.292 44.2999 285.78 43.4147 282.804 47.2014C280.702 49.875 268.261 87.372 249.882 99.8169C246.029 102.426 240.069 104.405 238.184 99.2871C234.744 89.9455 251.497 68.5097 258.76 61.2309L268.166 53.426C287.322 39.0977 297.831 47.2384 293.75 38.0152C293.115 36.5799 291.206 34.1788 290.053 33.3397C289.281 32.7785 288.247 32.4915 287.025 32.4199H285.709C277.371 32.8523 262.684 40.9031 258.93 43.1469C255.009 45.4906 252.433 47.6284 248.943 50.3716L244.426 54.1995C240.966 57.2456 240.571 58.073 238.137 60.9501C233.597 66.3169 233.223 66.4856 229.324 72.9988C223.936 81.9954 218.354 95.5146 222.702 106.427C228.028 119.797 244.242 117.809 255.905 107.404C257.672 105.828 258.713 105.402 260.278 103.431C261.729 101.603 262.915 100.335 264.372 98.6594Z" fill="#F5F7FA"/>
<path fill-rule="evenodd" clip-rule="evenodd" d="M43.2271 98.6602C43.1638 101.507 41.8984 103.489 42.2108 106.414C43.2056 115.742 53.7173 115.35 61.4823 115.35C62.2654 113.718 64.4977 107.412 63.0472 105.962C60.8515 104.909 57.9291 105.836 56.7989 103.83C55.2749 101.124 60.5625 87.5187 61.6722 84.2463C64.6696 75.4095 70.4381 62.5572 74.0951 53.8974C74.937 51.903 75.7988 49.6523 73.8744 47.6748C71.2765 45.0069 64.4743 43.6202 61.6593 47.2022C60.8689 48.2084 51.9784 70.6409 44.7973 81.4533C40.4089 88.0615 31.1075 101.631 22.8538 102.332C19.4313 102.623 17.9276 101.698 17.0391 99.2879C13.4841 89.6349 29.3832 70.7343 35.5577 63.3472C38.2306 60.1492 43.6028 55.9839 47.0212 53.4268C51.66 49.9565 58.064 46.2419 63.8647 44.7135C68.7127 43.436 75.5776 44.7356 72.6046 38.016C70.2934 32.7911 66.7656 31.5959 61.4627 32.9227C52.4218 35.1842 44.9964 38.8368 37.785 43.1477C32.4467 46.3388 23.3745 53.7186 18.8376 58.6226C14.9245 62.8538 11.134 68.0626 8.17836 72.9996C2.79194 81.9962 -2.79072 95.5154 1.55722 106.428C6.16217 117.987 19.2655 117.855 29.7687 111.28L39.133 103.432C40.5836 101.604 41.7696 100.336 43.2271 98.6602Z" fill="#232F3E"/>
<path fill-rule="evenodd" clip-rule="evenodd" d="M311.835 56.4123C311.835 62.0706 311.492 66.4752 316.128 71.4162C327.434 83.4627 342.616 82.7221 338.195 97.376C337.654 99.1681 336.739 100.326 336.348 101.789C327.302 101.036 301.522 88.9571 292.129 97.7299C281.891 107.29 289.469 125.259 316.007 125.259C322.234 125.259 327.085 123.895 331.592 122.067C337.599 119.632 339.623 116.654 343.129 114.306C354.604 116.979 353.41 116.607 355.647 107.004C355.617 106.249 355.727 105.74 355.543 105.656C355.102 105.452 355.208 105.921 354.604 105.439C351.982 105.439 352.268 104.97 349.909 104.918C356.737 92.0143 354.518 79.8193 342.085 71.0171C334.838 65.888 326.439 64.2137 326.439 55.3687C326.439 49.2325 333.192 44.9377 339.477 44.9377C345.109 44.9377 351.087 44.4689 353.027 51.7297C353.451 53.318 353.314 54.8477 355.125 54.8477C360.049 54.8477 363.007 51.6867 363.47 47.7379V45.5296C362.79 39.368 356.415 32.4199 342.607 32.4199C327.169 32.4199 311.835 42.429 311.835 56.4123Z" fill="#232F3E"/>
<path fill-rule="evenodd" clip-rule="evenodd" d="M97.775 70.1315C96.6891 69.9681 93.768 77.6695 88.198 91.1451C82.628 104.621 81.5645 118.026 85.2082 118.043C92.5174 118.078 95.2037 96.3675 96.4817 82.1691C97.0917 75.3951 97.9532 70.158 97.775 70.1315Z" fill="#F5F7FA"/>
<path fill-rule="evenodd" clip-rule="evenodd" d="M123.074 48.588C125.703 48.6054 128.158 50.1576 129.054 53.393C131.332 61.6201 126.441 89.6853 112.306 87.2514C109.724 86.807 115.721 63.228 110.634 60.7864C106.34 58.7259 96.8885 69.7609 100.218 65.4234C108.319 54.8699 118.006 48.5545 123.074 48.588Z" fill="#F5F7FA"/>
<path fill-rule="evenodd" clip-rule="evenodd" d="M173.738 70.1315C172.652 69.9681 169.731 77.6695 164.161 91.1451C158.591 104.621 157.527 118.026 161.171 118.043C168.48 118.078 171.167 96.3675 172.445 82.1691C173.055 75.3951 173.916 70.158 173.738 70.1315Z" fill="#F5F7FA"/>
<path fill-rule="evenodd" clip-rule="evenodd" d="M199.037 48.588C201.666 48.6054 204.121 50.1576 205.017 53.393C207.295 61.6201 202.404 89.6853 188.27 87.2514C185.687 86.807 191.684 63.228 186.597 60.7864C182.303 58.7259 172.852 69.7609 176.181 65.4234C184.282 54.8699 193.969 48.5545 199.037 48.588Z" fill="#F5F7FA"/>
<path fill-rule="evenodd" clip-rule="evenodd" d="M314.031 107.803C321.211 109.225 328.203 111.004 328.397 111.561C328.591 112.117 320.846 114.417 313.517 114.417C306.187 114.417 301.082 109.643 301.082 107.248C301.082 104.852 306.852 106.38 314.031 107.803Z" fill="#F5F7FA"/>
<path fill-rule="evenodd" clip-rule="evenodd" d="M78.1177 27.7265V29.2806C78.1177 29.6588 78.18 29.7342 78.18 30.0887C78.5902 30.0887 79.4223 30.213 80.3557 30.213C81.4176 30.213 82.345 30.0282 83.2208 29.8453C86.2492 29.2125 89.553 27.4945 92.0436 25.7376C92.2079 25.6214 92.337 25.5239 92.5158 25.4014C94.6403 23.9439 97.2253 21.3618 98.7312 19.432C98.8689 19.2554 98.9442 19.1424 99.0826 18.9753L101.333 15.568C102.154 14.1839 103.094 12.0781 103.592 10.4918C104.385 7.96883 104.85 5.45985 104.85 2.79734C104.85 2.31655 104.757 0.402288 104.663 0C103.289 0 100.183 0.683988 98.967 1.07995C98.0596 1.37557 97.3357 1.61294 96.4837 1.95351C95.3955 2.38903 94.5953 2.79893 93.5971 3.29427C92.482 3.84722 90.9153 4.9034 89.9299 5.59529C89.1725 6.12704 88.6734 6.62082 88.0644 7.08705L84.3346 10.9412C84.2039 11.1083 84.0871 11.2501 83.9529 11.4299L83.2151 12.4329C82.5311 13.4024 81.8373 14.4849 81.2876 15.5408C81.0872 15.9253 80.9122 16.2957 80.7077 16.7017C80.3469 17.4174 79.7819 18.8721 79.5144 19.6738L78.9261 21.6963C78.4931 23.4283 78.1177 25.5777 78.1177 27.7265Z" fill="#232F3E"/>
<path fill-rule="evenodd" clip-rule="evenodd" d="M264.372 98.6594C264.311 101.415 261.096 108.412 266.641 112.559C270.592 115.513 275.912 115.349 282.627 115.349C283.234 114.084 283.536 112.628 284.027 111.005C287.632 99.088 274.386 112.37 278.549 97.1889C279.743 92.8331 281.306 88.702 282.817 84.2455C283.586 81.9773 284.442 80.1754 285.157 78.2399L295.24 53.8966C299.292 44.2999 285.78 43.4147 282.804 47.2014C280.702 49.875 268.261 87.372 249.882 99.8169C246.029 102.426 240.069 104.405 238.184 99.2871C234.744 89.9455 251.497 68.5097 258.76 61.2309L268.166 53.426C287.322 39.0977 297.831 47.2384 293.75 38.0152C293.115 36.5799 291.206 34.1788 290.053 33.3397C289.281 32.7785 288.247 32.4915 287.025 32.4199H285.709C277.371 32.8523 262.684 40.9031 258.93 43.1469C255.009 45.4906 252.433 47.6284 248.943 50.3716L244.426 54.1995C240.966 57.2456 240.571 58.073 238.137 60.9501C233.597 66.3169 233.223 66.4856 229.324 72.9988C223.936 81.9954 218.354 95.5146 222.702 106.427C228.028 119.797 244.242 117.809 255.905 107.404C257.672 105.828 258.713 105.402 260.278 103.431C261.729 101.603 262.915 100.335 264.372 98.6594Z" fill="#232F3E"/>
<path fill-rule="evenodd" clip-rule="evenodd" d="M487.606 9.25244C525.931 9.25244 557 40.3212 557 78.6461C557 116.971 525.931 148.04 487.606 148.04C449.281 148.04 418.213 116.971 418.213 78.6461C418.213 40.3212 449.281 9.25244 487.606 9.25244Z" fill="#232F3E"/>
<path d="M477.039 83.8714L478.807 80.9044C479.811 81.5958 480.798 82.1182 481.764 82.4722C482.729 82.8262 483.77 83.0025 484.89 83.0025C486.473 83.0025 487.677 82.6973 488.495 82.0861C489.313 81.4748 489.73 80.55 489.73 79.3276C489.73 78.3386 489.36 77.5026 488.634 76.8188C487.901 76.1354 486.758 75.5888 485.207 75.1785C482.312 74.4142 480.328 73.4411 479.255 72.2753C478.19 71.1011 477.649 69.6614 477.649 67.949C477.649 65.9706 478.367 64.314 479.803 62.9869C481.231 61.6606 483.23 61.001 485.793 61.001C487.028 61.001 488.202 61.1619 489.321 61.4913C490.433 61.8211 491.575 62.3923 492.733 63.1883L491.082 66.1078C490.031 65.4156 489.082 64.9332 488.248 64.6601C487.406 64.3866 486.557 64.2498 485.7 64.2498C484.211 64.2498 483.068 64.5392 482.288 65.1104C481.501 65.6812 481.107 66.5097 481.107 67.595C481.107 68.6811 481.516 69.4926 482.319 70.0479C483.13 70.5949 484.427 71.117 486.225 71.5998C488.572 72.259 490.332 73.1842 491.506 74.3663C492.672 75.5562 493.258 77.1085 493.258 79.0223C493.258 81.2497 492.502 83.0109 490.981 84.3134C489.468 85.6085 487.391 86.2518 484.751 86.2518C483.339 86.2518 481.972 86.0504 480.667 85.6406C479.362 85.2307 478.158 84.6432 477.039 83.8714ZM531.749 85.6889H528.044V71.8329C528.044 69.1636 527.643 67.2335 526.855 66.0428C526.06 64.8448 524.732 64.2498 522.863 64.2498C521.281 64.2498 519.93 65.0054 518.826 66.5097C517.714 68.0215 517.159 69.8224 517.159 71.9296V85.6889H513.453V71.3663C513.453 68.9947 513.013 67.2173 512.141 66.0273C511.269 64.8448 509.949 64.2498 508.181 64.2498C506.552 64.2498 505.216 64.9574 504.159 66.3809C503.101 67.8039 502.576 69.6535 502.576 71.9296V85.6889H498.862V61.5639H502.576V65.3839H502.669C503.494 63.92 504.506 62.8264 505.71 62.0942C506.906 61.3629 508.289 61.001 509.856 61.001C511.438 61.001 512.82 61.4592 513.994 62.3761C515.175 63.293 515.978 64.4992 516.418 65.9948C517.275 64.3303 518.348 63.0757 519.629 62.2477C520.911 61.4113 522.4 61.001 524.106 61.001C526.654 61.001 528.561 61.8132 529.842 63.4459C531.116 65.0779 531.749 67.5391 531.749 70.8197V85.6889Z" fill="url(#paint0_linear_173_165)"/>
<path fill-rule="evenodd" clip-rule="evenodd" d="M462.767 78.4774C462.739 79.7708 462.171 80.6713 462.311 82.0008C462.758 86.24 467.474 86.0618 470.958 86.0618C471.309 85.3199 472.311 82.4548 471.66 81.7954C470.675 81.3169 469.364 81.7381 468.856 80.8265C468.173 79.5968 470.546 73.4141 471.043 71.9272C472.388 67.9111 474.976 62.0709 476.617 58.1355C476.995 57.2292 477.382 56.2061 476.518 55.3075C475.353 54.0952 472.301 53.465 471.037 55.0928C470.683 55.5498 466.694 65.7441 463.472 70.658C461.503 73.6606 457.329 79.8273 453.626 80.146C452.09 80.2781 451.415 79.858 451.017 78.7624C449.422 74.3757 456.556 65.7867 459.326 62.4296C460.525 60.9764 462.936 59.0836 464.47 57.9215C466.551 56.3444 469.424 54.6562 472.027 53.9619C474.202 53.3813 477.283 53.9719 475.949 50.9181C474.912 48.5437 473.329 48.0008 470.949 48.6037C466.893 49.6313 463.561 51.291 460.325 53.2503C457.93 54.7004 453.859 58.054 451.824 60.2829C450.068 62.2053 448.367 64.5728 447.041 66.8162C444.624 70.9045 442.119 77.0481 444.07 82.0073C446.137 87.26 452.016 87.2005 456.729 84.2124L460.93 80.6456C461.581 79.815 462.113 79.2389 462.767 78.4774Z" fill="white"/>
<path fill-rule="evenodd" clip-rule="evenodd" d="M477.039 47.1641V47.9217C477.039 48.1059 477.068 48.143 477.068 48.3156C477.262 48.3156 477.655 48.3761 478.096 48.3761C478.597 48.3761 479.035 48.2863 479.449 48.1969C480.879 47.8884 482.44 47.0508 483.616 46.1943C483.694 46.1378 483.755 46.0905 483.839 46.0303C484.842 45.3201 486.063 44.061 486.774 43.12C486.839 43.0339 486.875 42.9792 486.94 42.8976L488.003 41.2365C488.391 40.5616 488.835 39.535 489.07 38.7617C489.445 37.5315 489.664 36.3083 489.664 35.0105C489.664 34.7761 489.62 33.8426 489.576 33.6465C488.927 33.6465 487.46 33.9802 486.886 34.173C486.457 34.3172 486.115 34.433 485.713 34.599C485.199 34.8112 484.821 35.0114 484.35 35.2528C483.823 35.5222 483.083 36.0372 482.618 36.3746C482.26 36.6338 482.024 36.8744 481.737 37.1018L479.975 38.9808C479.913 39.062 479.858 39.1312 479.795 39.219L479.446 39.708C479.123 40.1806 478.796 40.7083 478.536 41.2233C478.441 41.4107 478.359 41.5912 478.262 41.7889C478.092 42.1379 477.825 42.8473 477.699 43.2379L477.42 44.2242C477.216 45.0683 477.039 46.1164 477.039 47.1641Z" fill="white"/>
<path d="M464.943 107.05H463.951V101.004C463.951 99.8301 463.747 98.9874 463.34 98.4823C462.933 97.9772 462.361 97.7232 461.622 97.7232C460.866 97.7232 460.217 98.0479 459.677 98.6963C459.137 99.3485 458.869 100.158 458.869 101.131V107.05H457.884V100.907C457.884 99.8803 457.693 99.0942 457.316 98.5458C456.937 97.9973 456.376 97.7232 455.633 97.7232C454.747 97.7232 454.053 98.0543 453.546 98.713C453.035 99.3721 452.783 100.228 452.783 101.278V107.05H451.788V97.0175H452.783V98.5158H452.822C453.155 97.9475 453.571 97.5161 454.075 97.2181C454.576 96.9205 455.161 96.7734 455.83 96.7734C456.511 96.7734 457.099 96.9639 457.59 97.3519C458.081 97.7366 458.417 98.2349 458.595 98.8502C458.915 98.1915 459.357 97.6799 459.919 97.3151C460.481 96.954 461.079 96.7734 461.716 96.7734C462.778 96.7734 463.58 97.1147 464.126 97.797C464.672 98.4789 464.943 99.4956 464.943 100.85V107.05ZM472.99 107.295C471.578 107.295 470.441 106.82 469.585 105.87C468.726 104.92 468.296 103.663 468.296 102.104C468.296 100.516 468.755 99.2315 469.676 98.2482C470.593 97.2653 471.727 96.7734 473.077 96.7734C474.463 96.7734 475.581 97.2653 476.421 98.2482C477.264 99.2315 477.687 100.496 477.687 102.044C477.687 103.585 477.257 104.846 476.398 105.826C475.539 106.806 474.405 107.295 472.99 107.295ZM473.029 106.345C474.14 106.345 475.022 105.95 475.674 105.164C476.327 104.378 476.653 103.335 476.653 102.034C476.653 100.753 476.33 99.7165 475.678 98.924C475.028 98.1311 474.156 97.7335 473.058 97.7335C471.96 97.7335 471.061 98.1414 470.364 98.9639C469.669 99.7833 469.32 100.833 469.32 102.111C469.32 103.398 469.659 104.425 470.338 105.194C471.016 105.96 471.911 106.345 473.029 106.345ZM480.727 105.288L481.615 104.837C481.844 105.331 482.171 105.712 482.597 105.973C483.02 106.234 483.537 106.365 484.145 106.365C484.775 106.365 485.282 106.181 485.663 105.816C486.044 105.449 486.235 104.987 486.235 104.425C486.235 103.933 486.089 103.532 485.795 103.214C485.501 102.897 484.894 102.586 483.973 102.278C482.94 101.947 482.226 101.563 481.835 101.128C481.444 100.693 481.247 100.158 481.247 99.5257C481.247 98.6697 481.531 97.9973 482.103 97.5058C482.675 97.0174 483.389 96.7734 484.248 96.7734C484.839 96.7734 485.395 96.9072 485.912 97.1782C486.432 97.4488 486.846 97.8434 487.152 98.3588L486.328 98.8202C486.096 98.4488 485.789 98.168 485.408 97.9772C485.027 97.7867 484.626 97.6932 484.209 97.6932C483.599 97.6932 483.111 97.8468 482.752 98.1547C482.394 98.4622 482.213 98.8803 482.213 99.409C482.213 99.8533 482.351 100.211 482.633 100.486C482.914 100.76 483.466 101.031 484.287 101.298C485.353 101.646 486.109 102.034 486.558 102.465C487.004 102.897 487.23 103.519 487.23 104.335C487.23 105.224 486.933 105.94 486.345 106.482C485.754 107.024 485.017 107.295 484.135 107.295C483.314 107.295 482.613 107.107 482.032 106.732C481.454 106.355 481.018 105.873 480.727 105.288ZM498.41 105.425C498.019 106.017 497.532 106.479 496.954 106.806C496.372 107.13 495.674 107.295 494.86 107.295C493.503 107.295 492.399 106.81 491.549 105.84C490.696 104.87 490.27 103.626 490.27 102.104C490.27 100.502 490.719 99.2147 491.62 98.2383C492.518 97.2619 493.636 96.7734 494.973 96.7734C495.694 96.7734 496.343 96.9308 496.918 97.2417C497.496 97.556 497.987 98.0007 498.391 98.5762L497.626 99.1543C497.241 98.6229 496.821 98.255 496.369 98.0406C495.92 97.8305 495.442 97.7232 494.938 97.7232C493.894 97.7232 493.028 98.1178 492.334 98.9072C491.639 99.6997 491.294 100.763 491.294 102.104C491.294 103.338 491.627 104.352 492.295 105.144C492.964 105.937 493.833 106.335 494.899 106.335C495.493 106.335 496.01 106.211 496.449 105.963C496.892 105.716 497.283 105.335 497.626 104.826L498.41 105.425ZM505.841 107.295C504.429 107.295 503.291 106.82 502.436 105.87C501.576 104.92 501.147 103.663 501.147 102.104C501.147 100.516 501.605 99.2315 502.526 98.2482C503.443 97.2653 504.578 96.7734 505.928 96.7734C507.314 96.7734 508.431 97.2653 509.271 98.2482C510.114 99.2315 510.538 100.496 510.538 102.044C510.538 103.585 510.108 104.846 509.249 105.826C508.389 106.806 507.256 107.295 505.841 107.295ZM505.879 106.345C506.99 106.345 507.872 105.95 508.525 105.164C509.178 104.378 509.504 103.335 509.504 102.034C509.504 100.753 509.181 99.7165 508.528 98.924C507.879 98.1311 507.007 97.7335 505.908 97.7335C504.81 97.7335 503.912 98.1414 503.214 98.9639C502.519 99.7833 502.17 100.833 502.17 102.111C502.17 103.398 502.51 104.425 503.188 105.194C503.867 105.96 504.761 106.345 505.879 106.345ZM525.436 97.0175L522.474 107.05H521.518L519.427 99.6127C519.376 99.4454 519.34 99.3151 519.321 99.228C519.302 99.138 519.286 99.0441 519.266 98.9471H519.218C519.192 99.0577 519.169 99.1611 519.147 99.2512C519.124 99.3417 519.088 99.4557 519.037 99.596L516.711 107.05H515.764L512.867 97.0175H513.9L516.123 104.816C516.155 104.934 516.181 105.037 516.204 105.131C516.227 105.221 516.246 105.321 516.265 105.435H516.339C516.372 105.321 516.401 105.221 516.42 105.131C516.443 105.037 516.472 104.934 516.511 104.816L518.933 97.0175H519.683L521.841 104.816C521.864 104.913 521.889 105.007 521.912 105.09C521.931 105.174 521.96 105.291 521.99 105.435H522.057C522.096 105.291 522.122 105.178 522.138 105.1C522.146 105.062 522.156 105.018 522.168 104.971C522.179 104.923 522.193 104.872 522.209 104.816L524.47 97.0175H525.436Z" fill="white"/>
<defs>
<linearGradient id="paint0_linear_173_165" x1="477.039" y1="73.6262" x2="531.749" y2="73.6262" gradientUnits="userSpaceOnUse">
<stop stop-color="#FFE84B"/>
<stop offset="0.470588" stop-color="#FC2871"/>
<stop offset="1" stop-color="#C10E90"/>
</linearGradient>
</defs>
</svg>
